<?xml version="1.0" encoding="UTF-8" standalone="no"?>
<!-- Created with Inkscape (http://www.inkscape.org/) -->

<svg
   xmlns:dc="http://purl.org/dc/elements/1.1/"
   xmlns:cc="http://creativecommons.org/ns#"
   xmlns:rdf="http://www.w3.org/1999/02/22-rdf-syntax-ns#"
   xmlns:svg="http://www.w3.org/2000/svg"
   xmlns="http://www.w3.org/2000/svg"
   xmlns:sodipodi="http://sodipodi.sourceforge.net/DTD/sodipodi-0.dtd"
   xmlns:inkscape="http://www.inkscape.org/namespaces/inkscape"
   width="160.3mm"
   height="294.08588mm"
   id="svg3748"
   version="1.1"
   inkscape:version="0.91+devel r13740 custom"
   sodipodi:docname="playfield_holes.svg"
   inkscape:export-filename="/home/felipe/devel/github_felipesanches/PARTYLandRemake/kicad/libs/playfield_holes.png"
   inkscape:export-xdpi="150.0293"
   inkscape:export-ydpi="150.0293">
  <defs
     id="defs3750">
    <pattern
       id="Hatch"
       x="0"
       y="0"
       patternUnits="userSpaceOnUse"
       width="8"
       height="8">
      <path
         id="path1894"
         d="M8 4 l-4,4"
         stroke-width="0.25"
         stroke="#000000"
         linecap="square" />
      <path
         id="path1896"
         d="M6 2 l-4,4"
         stroke-width="0.25"
         stroke="#000000"
         linecap="square" />
      <path
         id="path1898"
         d="M4 0 l-4,4"
         stroke-width="0.25"
         stroke="#000000"
         linecap="square" />
    </pattern>
    <marker
       orient="auto"
       id="DistanceX"
       style="overflow:visible"
       refX="0"
       refY="0">
      <path
         id="path1891"
         d="M 3,-3 -3,3 M 0,-5 0,5"
         style="stroke:#000000;stroke-width:0.5"
         inkscape:connector-curvature="0" />
    </marker>
    <pattern
       id="Hatch-1"
       x="0"
       y="0"
       patternUnits="userSpaceOnUse"
       width="8"
       height="8">
      <path
         id="path2237"
         d="M8 4 l-4,4"
         stroke-width="0.25"
         stroke="#000000"
         linecap="square" />
      <path
         id="path2239"
         d="M6 2 l-4,4"
         stroke-width="0.25"
         stroke="#000000"
         linecap="square" />
      <path
         id="path2241"
         d="M4 0 l-4,4"
         stroke-width="0.25"
         stroke="#000000"
         linecap="square" />
    </pattern>
    <marker
       orient="auto"
       id="DistanceX-3"
       style="overflow:visible"
       refX="0"
       refY="0">
      <path
         id="path2234"
         d="M 3,-3 -3,3 M 0,-5 0,5"
         style="stroke:#000000;stroke-width:0.5"
         inkscape:connector-curvature="0" />
    </marker>
    <pattern
       id="Hatch-2"
       x="0"
       y="0"
       patternUnits="userSpaceOnUse"
       width="8"
       height="8">
      <path
         id="path2935"
         d="M8 4 l-4,4"
         stroke-width="0.25"
         stroke="#000000"
         linecap="square" />
      <path
         id="path2937"
         d="M6 2 l-4,4"
         stroke-width="0.25"
         stroke="#000000"
         linecap="square" />
      <path
         id="path2939"
         d="M4 0 l-4,4"
         stroke-width="0.25"
         stroke="#000000"
         linecap="square" />
    </pattern>
    <marker
       orient="auto"
       id="DistanceX-4"
       style="overflow:visible"
       refX="0"
       refY="0">
      <path
         id="path2932"
         d="M 3,-3 -3,3 M 0,-5 0,5"
         style="stroke:#000000;stroke-width:0.5"
         inkscape:connector-curvature="0" />
    </marker>
    <pattern
       id="Hatch-22"
       x="0"
       y="0"
       patternUnits="userSpaceOnUse"
       width="8"
       height="8">
      <path
         id="path2983"
         d="M8 4 l-4,4"
         stroke-width="0.25"
         stroke="#000000"
         linecap="square" />
      <path
         id="path2985"
         d="M6 2 l-4,4"
         stroke-width="0.25"
         stroke="#000000"
         linecap="square" />
      <path
         id="path2987"
         d="M4 0 l-4,4"
         stroke-width="0.25"
         stroke="#000000"
         linecap="square" />
    </pattern>
    <marker
       orient="auto"
       id="DistanceX-8"
       style="overflow:visible"
       refX="0"
       refY="0">
      <path
         id="path2980"
         d="M 3,-3 -3,3 M 0,-5 0,5"
         style="stroke:#000000;stroke-width:0.5"
         inkscape:connector-curvature="0" />
    </marker>
    <pattern
       id="Hatch-8"
       x="0"
       y="0"
       patternUnits="userSpaceOnUse"
       width="8"
       height="8">
      <path
         id="path3033"
         d="M8 4 l-4,4"
         stroke-width="0.25"
         stroke="#000000"
         linecap="square" />
      <path
         id="path3035"
         d="M6 2 l-4,4"
         stroke-width="0.25"
         stroke="#000000"
         linecap="square" />
      <path
         id="path3037"
         d="M4 0 l-4,4"
         stroke-width="0.25"
         stroke="#000000"
         linecap="square" />
    </pattern>
    <marker
       orient="auto"
       id="DistanceX-9"
       style="overflow:visible"
       refX="0"
       refY="0">
      <path
         id="path3030"
         d="M 3,-3 -3,3 M 0,-5 0,5"
         style="stroke:#000000;stroke-width:0.5"
         inkscape:connector-curvature="0" />
    </marker>
    <pattern
       id="Hatch-80"
       x="0"
       y="0"
       patternUnits="userSpaceOnUse"
       width="8"
       height="8">
      <path
         id="path3183"
         d="M8 4 l-4,4"
         stroke-width="0.25"
         stroke="#000000"
         linecap="square" />
      <path
         id="path3185"
         d="M6 2 l-4,4"
         stroke-width="0.25"
         stroke="#000000"
         linecap="square" />
      <path
         id="path3187"
         d="M4 0 l-4,4"
         stroke-width="0.25"
         stroke="#000000"
         linecap="square" />
    </pattern>
    <marker
       orient="auto"
       id="DistanceX-0"
       style="overflow:visible"
       refX="0"
       refY="0">
      <path
         id="path3180"
         d="M 3,-3 -3,3 M 0,-5 0,5"
         style="stroke:#000000;stroke-width:0.5"
         inkscape:connector-curvature="0" />
    </marker>
  </defs>
  <sodipodi:namedview
     id="base"
     pagecolor="#000000"
     bordercolor="#666666"
     borderopacity="1.0"
     inkscape:pageopacity="1"
     inkscape:pageshadow="2"
     inkscape:zoom="0.77552461"
     inkscape:cx="81.143785"
     inkscape:cy="555.75284"
     inkscape:document-units="px"
     inkscape:current-layer="svg3748"
     showgrid="false"
     width="0px"
     height="0px"
     fit-margin-top="5"
     fit-margin-left="5"
     fit-margin-right="5"
     fit-margin-bottom="5"
     inkscape:window-width="1918"
     inkscape:window-height="1010"
     inkscape:window-x="0"
     inkscape:window-y="0"
     inkscape:window-maximized="1"
     units="mm" />
  <metadata
     id="metadata3753">
    <rdf:RDF>
      <cc:Work
         rdf:about="">
        <dc:format>image/svg+xml</dc:format>
        <dc:type
           rdf:resource="http://purl.org/dc/dcmitype/StillImage" />
        <dc:title></dc:title>
      </cc:Work>
    </rdf:RDF>
  </metadata>
  <path
     style="display:inline;fill:none;stroke:#ffffff;stroke-width:1.13385832;stroke-miterlimit:4;stroke-dasharray:none"
     d="m 19.464567,19.464567 0,990.877933 46.21094,0 0,81.6986 471.063843,0 0,-81.6986 49.65435,0 0,-990.877933 -566.929133,0 z m 257.446353,43.3335 c 0.96073,0.026 1.82922,0.6824 2.0912,1.6589 0.31978,1.1924 -0.37959,2.4085 -1.57233,2.728 l -36.16372,9.6855 c -1.19246,0.3195 -2.41608,-0.3798 -2.73586,-1.5723 -0.31947,-1.1924 0.38749,-2.4085 1.5802,-2.728 l 36.16373,-9.6934 c 0.1489,-0.041 0.30015,-0.061 0.4481,-0.071 0.0648,-0.01 0.12463,-0.01 0.18868,-0.01 z m 133.09033,11.1794 c 0.35899,0 0.72724,0.1075 1.06133,0.2987 l 32.42156,18.7265 c 1.06919,0.6189 1.43495,1.9733 0.81762,3.0425 -0.61739,1.0692 -1.98115,1.434 -3.05033,0.8176 l -32.42156,-18.7265 c -1.06919,-0.6189 -1.435,-1.9733 -0.81762,-3.0425 0.42436,-0.7346 1.19908,-1.139 1.989,-1.1163 z m -87.79135,9.9293 c 7.50022,0 13.58498,6.083 13.58498,13.5849 0,7.499403 -6.08476,13.577103 -13.58498,13.577103 -7.49986,0 -13.5771,-6.0777 -13.5771,-13.577103 0,-7.5019 6.07721,-13.5849 13.5771,-13.5849 z m -76.64349,61.517603 c 2.95398,0 5.34594,2.4003 5.34594,5.3538 0,2.9535 -2.39196,5.3459 -5.34594,5.3459 -2.95373,0 -5.3538,-2.3924 -5.3538,-5.3459 0,-2.9535 2.40007,-5.3538 5.3538,-5.3538 z m 233.96351,60.4563 c 1.72303,0 3.1211,1.3978 3.1211,3.1211 0,1.7207 -1.39807,3.121 -3.1211,3.121 -1.723,0 -3.12107,-1.4003 -3.12107,-3.121 0,-1.7233 1.39807,-3.1211 3.12107,-3.1211 z m -340.11974,31.5803 c 8.32739,0 15.0787,6.7516 15.0787,15.0787 0,8.3271 -6.75131,15.0709 -15.0787,15.0709 -8.32704,0 -15.07869,-6.7438 -15.07869,-15.0709 0,-8.3271 6.75165,-15.0787 15.07869,-15.0787 z m 112.68928,22.791 c 1.72298,0 3.12109,1.3978 3.12109,3.1211 0,1.7233 -1.39811,3.1211 -3.12109,3.1211 -1.72305,0 -3.11322,-1.3978 -3.11322,-3.1211 0,-1.7233 1.39017,-3.1211 3.11322,-3.1211 z m 4.0016,36.148 c 9.60005,0 17.38217,7.7821 17.38217,17.3822 0,9.6 -7.78212,17.3821 -17.38217,17.3821 -9.60005,0 -17.38217,-7.7821 -17.38217,-17.3821 0,-9.6001 7.78212,-17.3822 17.38217,-17.3822 z M 74.779328,421.51067 c 2.95398,0 5.34594,2.3979 5.34594,5.3539 0,2.9534 -2.39196,5.3459 -5.34594,5.3459 -2.953725,0 -5.34594,-2.3925 -5.34594,-5.3459 0,-2.956 2.392215,-5.3539 5.34594,-5.3539 z m -20.259541,26.486 c 9.600051,0 17.382166,7.7822 17.382166,17.3822 0,9.6001 -7.782115,17.3822 -17.382166,17.3822 -9.600052,0 -17.382169,-7.7821 -17.382169,-17.3822 0,-9.6 7.782117,-17.3822 17.382169,-17.3822 z m 347.124513,20.2124 c 0.45638,0 0.90996,0.1717 1.25786,0.5189 0.69641,0.6968 0.69641,1.8292 0,2.5236 -0.69608,0.6968 -1.82725,0.6968 -2.52361,0 -0.6961,-0.6944 -0.6961,-1.8268 0,-2.5236 0.34821,-0.3472 0.80964,-0.5189 1.26575,-0.5189 z m 7.24846,5.4639 c 1.96927,0 3.56133,1.5994 3.56133,3.5692 0,1.9673 -1.59206,3.5613 -3.56133,3.5613 -1.96932,0 -3.5692,-1.594 -3.5692,-3.5613 0,-1.9698 1.59988,-3.5692 3.5692,-3.5692 z m -15.60542,0.4481 c 1.72301,0 3.12108,1.3978 3.12108,3.1211 0,1.7233 -1.39805,3.1211 -3.12108,3.1211 -1.72302,0 -3.11322,-1.3978 -3.11322,-3.1211 0,-1.7233 1.3902,-3.1211 3.11322,-3.1211 z m 31.20299,0 c 1.723,0 3.12107,1.3978 3.12107,3.1211 0,1.7233 -1.39807,3.1211 -3.12107,3.1211 -1.72305,0 -3.12107,-1.3978 -3.12107,-3.1211 0,-1.7233 1.39802,-3.1211 3.12107,-3.1211 z m -8.3491,8.5849 c 0.45638,0 0.90997,0.1692 1.25787,0.5189 0.6964,0.6944 0.6964,1.8268 0,2.5236 -0.69608,0.6969 -1.82726,0.6969 -2.52361,0 -0.69611,-0.6968 -0.69611,-1.8293 0,-2.5236 0.3482,-0.3497 0.80964,-0.5189 1.26574,-0.5189 z m 80.42496,4.4498 c 0.45633,0 0.90964,0.1716 1.25787,0.5188 0.69607,0.6969 0.69607,1.8268 0,2.5236 -0.69641,0.6944 -1.81966,0.6944 -2.51574,0 -0.69641,-0.6968 -0.69641,-1.8267 0,-2.5236 0.34818,-0.3472 0.80149,-0.5188 1.25787,-0.5188 z m 7.24846,5.4638 c 1.96932,0 3.56136,1.5915 3.56136,3.5614 0,1.9672 -1.59204,3.5692 -3.56136,3.5692 -1.96904,0 -3.5692,-1.602 -3.5692,-3.5692 0,-1.9698 1.60016,-3.5614 3.5692,-3.5614 z m -216.88795,0.3224 c 0.95069,-0.025 1.84008,0.5795 2.15409,1.533 l 25.11808,76.1875 c 0.38641,1.1724 -0.25037,2.427 -1.42298,2.8145 l -5.9277,1.9575 c -1.17264,0.3849 -2.42777,-0.2506 -2.81448,-1.4229 l -25.1102,-76.1875 c -0.38647,-1.1724 0.24246,-2.4271 1.4151,-2.8145 l 5.9277,-1.9576 c 0.2199,-0.073 0.44104,-0.105 0.66039,-0.11 z m 201.29039,0.1179 c 1.72328,0 3.12109,1.3978 3.12109,3.1211 0,1.7232 -1.39776,3.1211 -3.12109,3.1211 -1.72301,0 -3.1211,-1.3979 -3.1211,-3.1211 0,-1.7233 1.39809,-3.1211 3.1211,-3.1211 z m 31.19511,0 c 1.7233,0 3.1211,1.3978 3.1211,3.1211 0,1.7232 -1.39775,3.1211 -3.1211,3.1211 -1.72298,0 -3.12108,-1.3979 -3.12108,-3.1211 0,-1.7233 1.3981,-3.1211 3.12108,-3.1211 z m -8.34908,8.5928 c 0.45633,0 0.90964,0.1717 1.25787,0.5189 0.69608,0.6968 0.69608,1.8267 0,2.5236 -0.69641,0.6968 -1.81966,0.6968 -2.51574,0 -0.6964,-0.6969 -0.6964,-1.8268 0,-2.5236 0.34818,-0.3472 0.80149,-0.5189 1.25787,-0.5189 z m -152.76811,18.6951 c 0.45633,0 0.90966,0.1795 1.25787,0.5267 0.69607,0.6969 0.69607,1.8214 0,2.5157 -0.69641,0.6969 -1.82749,0.6969 -2.52359,0 -0.69638,-0.6943 -0.69638,-1.8188 0,-2.5157 0.34818,-0.3472 0.80934,-0.5267 1.26572,-0.5267 z m 7.24846,5.4717 c 1.96935,0 3.56136,1.5915 3.56136,3.5613 0,1.9673 -1.59201,3.5692 -3.56136,3.5692 -1.96901,0 -3.5692,-1.6019 -3.5692,-3.5692 0,-1.9698 1.60019,-3.5613 3.5692,-3.5613 z m -15.60544,0.4402 c 1.72303,0 3.1211,1.3979 3.1211,3.1211 0,1.7233 -1.39807,3.1211 -3.1211,3.1211 -1.723,0 -3.11322,-1.3978 -3.11322,-3.1211 0,-1.7232 1.39022,-3.1211 3.11322,-3.1211 z m 31.20301,0 c 1.72328,0 3.1211,1.3979 3.1211,3.1211 0,1.7233 -1.39777,3.1211 -3.1211,3.1211 -1.723,0 -3.1211,-1.3978 -3.1211,-3.1211 0,-1.7232 1.3981,-3.1211 3.1211,-3.1211 z m -8.3491,8.585 c 0.45633,0 0.90964,0.177 1.25787,0.5267 0.69608,0.6969 0.69608,1.8189 0,2.5158 -0.69641,0.6968 -1.82748,0.6968 -2.52359,0 -0.69638,-0.6969 -0.69638,-1.8189 0,-2.5158 0.34818,-0.3497 0.80934,-0.5267 1.26572,-0.5267 z m 110.39367,3.4434 c 1.72328,0 3.1211,1.3978 3.1211,3.1211 0,1.7233 -1.39777,3.1211 -3.1211,3.1211 -1.723,0 -3.1211,-1.3978 -3.1211,-3.1211 0,-1.7233 1.3981,-3.1211 3.1211,-3.1211 z m -16.76109,2.5944 29.3319,10.6211 -12.13843,33.5222 -29.33978,-10.6212 12.14631,-33.5221 z m 108.50688,50.1889 c 1.723,0 3.12105,1.3978 3.12105,3.1211 0,1.7233 -1.39805,3.1211 -3.12105,3.1211 -1.72305,0 -3.11325,-1.3978 -3.11325,-3.1211 0,-1.7233 1.3902,-3.1211 3.11325,-3.1211 z m -126.51797,156.243 c 0.71527,0.01 1.43955,0.1352 2.15407,0.3774 3.7326,1.2553 5.73752,5.3022 4.48118,9.033 -1.25636,3.7334 -5.3002,5.7444 -9.03308,4.489 -3.73255,-1.2578 -5.73754,-5.2997 -4.48115,-9.033 0.98164,-2.9158 3.6654,-4.7831 6.57236,-4.8586 0.10173,-0.01 0.20443,-0.01 0.30662,-0.01 z m -324.77377,0.2673 c 3.03896,-0.085 5.90689,1.7902 6.94186,4.8192 1.27347,3.7258 -0.71476,7.7812 -4.44185,9.0566 -3.72679,1.273 -7.78288,-0.716 -9.05666,-4.4418 -1.27341,-3.7257 0.71504,-7.7837 4.44186,-9.0567 0.69862,-0.2389 1.41335,-0.3572 2.11479,-0.3773 z m -38.357132,2.8774 c 1.234725,0 2.224855,0.9896 2.224855,2.2248 l 0,37.4452 c 0,1.2352 -0.99013,2.2248 -2.224855,2.2248 -1.23447,0 -2.232715,-0.9896 -2.232715,-2.2248 l 0,-37.4452 c 0,-1.2352 0.998245,-2.2248 2.232715,-2.2248 z m 397.730132,0 c 1.23444,0 2.22486,0.9896 2.22486,2.2248 l 0,37.4452 c 0,1.2352 -0.99042,2.2248 -2.22486,2.2248 -1.23473,0 -2.23272,-0.9896 -2.23272,-2.2248 l 0,-37.4452 c 0,-1.2352 0.99799,-2.2248 2.23272,-2.2248 z m -345.08047,18.5221 c 2.28107,-0.065 4.42576,1.3449 5.20443,3.6242 0.95819,2.8025 -0.52959,5.834 -3.33335,6.7925 l -10.11798,3.4591 c -2.80379,0.9585 -5.83425,-0.5308 -6.79249,-3.3333 -0.95825,-2.8051 0.52956,-5.834 3.33335,-6.7925 l 10.11798,-3.4591 c 0.52574,-0.1812 1.06182,-0.2759 1.58806,-0.2909 z m 293.79088,6.5723 c 0.61077,-0.025 1.23314,0.069 1.84751,0.2752 l 10.13369,3.4198 c 2.80804,0.946 4.30996,3.9614 3.3648,6.7689 -0.94522,2.8076 -3.9684,4.3082 -6.77677,3.3648 l -10.13371,-3.4119 c -2.80832,-0.9434 -4.30996,-3.9692 -3.3648,-6.7768 0.73837,-2.1937 2.74784,-3.5872 4.92928,-3.64 z m -379.514616,11.0221 c 1.234723,0 2.224854,1 2.224854,2.2327 l 0,37.4373 c 0,1.2328 -0.990131,2.2249 -2.224854,2.2249 -1.234473,0 -2.232717,-0.9921 -2.232717,-2.2249 l 0,-37.4373 c 0,-1.2327 0.998244,-2.2327 2.232717,-2.2327 z m 466.488346,0 c 1.23445,0 2.22485,1 2.22485,2.2327 l 0,37.4373 c 0,1.2328 -0.9904,2.2249 -2.22485,2.2249 -1.2347,0 -2.2327,-0.9921 -2.2327,-2.2249 l 0,-37.4373 c 0,-1.2327 0.998,-2.2327 2.2327,-2.2327 z m -87.35109,11.4309 c 0.71679,0.01 1.44743,0.1352 2.16198,0.3774 3.73257,1.2553 5.73749,5.3022 4.48113,9.033 -1.25634,3.7334 -5.30051,5.7365 -9.03306,4.4812 -3.73287,-1.2579 -5.74536,-5.2997 -4.48903,-9.0331 0.98167,-2.9157 3.66543,-4.7752 6.57236,-4.8507 0.10174,-0.01 0.20423,-0.01 0.30662,-0.01 z m -290.41036,0.1808 c 3.03896,-0.086 5.90689,1.8006 6.94186,4.8271 1.27347,3.7283 -0.71476,7.7837 -4.44185,9.0566 -3.72653,1.2755 -7.78288,-0.7161 -9.05665,-4.4418 -1.27342,-3.7284 0.71503,-7.7838 4.44185,-9.0567 0.69862,-0.239 1.41335,-0.3676 2.11479,-0.3852 z m 54.18268,127.084 c 2.9537,0 5.3538,2.3925 5.3538,5.346 0,2.9534 -2.4001,5.3538 -5.3538,5.3538 -2.95401,0 -5.34594,-2.4004 -5.34594,-5.3538 0,-2.9535 2.39193,-5.346 5.34594,-5.346 z m 182.13934,0 c 2.95368,0 5.34594,2.3925 5.34594,5.346 0,2.9534 -2.39226,5.3538 -5.34594,5.3538 -2.954,0 -5.34594,-2.4004 -5.34594,-5.3538 0,-2.9535 2.39194,-5.346 5.34594,-5.346 z M 289.17514,1027.363 c 9.60002,0 17.38218,7.7822 17.38218,17.3822 0,9.6001 -7.78216,17.3822 -17.38218,17.3822 -9.60011,0 -17.38219,-7.7821 -17.38219,-17.3822 0,-9.6 7.78208,-17.3822 17.38219,-17.3822 z"
     id="path1561"
     inkscape:connector-curvature="0"
     inkscape:export-filename="/tmp/layout_party.png"
     inkscape:export-xdpi="90.04113"
     inkscape:export-ydpi="90.04113" />
</svg>
