<?xml version="1.0" encoding="UTF-8" standalone="no"?>
<!-- Created with Inkscape (http://www.inkscape.org/) -->

<svg
   xmlns:dc="http://purl.org/dc/elements/1.1/"
   xmlns:cc="http://creativecommons.org/ns#"
   xmlns:rdf="http://www.w3.org/1999/02/22-rdf-syntax-ns#"
   xmlns:svg="http://www.w3.org/2000/svg"
   xmlns="http://www.w3.org/2000/svg"
   xmlns:sodipodi="http://sodipodi.sourceforge.net/DTD/sodipodi-0.dtd"
   xmlns:inkscape="http://www.inkscape.org/namespaces/inkscape"
   width="160.3mm"
   height="294.08588mm"
   id="svg3748"
   version="1.1"
   inkscape:version="0.91+devel r13740 custom"
   sodipodi:docname="playfield_inserts.svg"
   inkscape:export-filename="/home/felipe/devel/github_felipesanches/PARTYLandRemake/kicad/libs/playfield_inserts.png"
   inkscape:export-xdpi="150.0293"
   inkscape:export-ydpi="150.0293">
  <defs
     id="defs3750">
    <pattern
       id="Hatch"
       x="0"
       y="0"
       patternUnits="userSpaceOnUse"
       width="8"
       height="8">
      <path
         id="path1894"
         d="M8 4 l-4,4"
         stroke-width="0.25"
         stroke="#000000"
         linecap="square" />
      <path
         id="path1896"
         d="M6 2 l-4,4"
         stroke-width="0.25"
         stroke="#000000"
         linecap="square" />
      <path
         id="path1898"
         d="M4 0 l-4,4"
         stroke-width="0.25"
         stroke="#000000"
         linecap="square" />
    </pattern>
    <marker
       orient="auto"
       id="DistanceX"
       style="overflow:visible"
       refX="0"
       refY="0">
      <path
         id="path1891"
         d="M 3,-3 -3,3 M 0,-5 0,5"
         style="stroke:#000000;stroke-width:0.5"
         inkscape:connector-curvature="0" />
    </marker>
    <pattern
       id="Hatch-1"
       x="0"
       y="0"
       patternUnits="userSpaceOnUse"
       width="8"
       height="8">
      <path
         id="path2237"
         d="M8 4 l-4,4"
         stroke-width="0.25"
         stroke="#000000"
         linecap="square" />
      <path
         id="path2239"
         d="M6 2 l-4,4"
         stroke-width="0.25"
         stroke="#000000"
         linecap="square" />
      <path
         id="path2241"
         d="M4 0 l-4,4"
         stroke-width="0.25"
         stroke="#000000"
         linecap="square" />
    </pattern>
    <marker
       orient="auto"
       id="DistanceX-3"
       style="overflow:visible"
       refX="0"
       refY="0">
      <path
         id="path2234"
         d="M 3,-3 -3,3 M 0,-5 0,5"
         style="stroke:#000000;stroke-width:0.5"
         inkscape:connector-curvature="0" />
    </marker>
    <pattern
       id="Hatch-2"
       x="0"
       y="0"
       patternUnits="userSpaceOnUse"
       width="8"
       height="8">
      <path
         id="path2935"
         d="M8 4 l-4,4"
         stroke-width="0.25"
         stroke="#000000"
         linecap="square" />
      <path
         id="path2937"
         d="M6 2 l-4,4"
         stroke-width="0.25"
         stroke="#000000"
         linecap="square" />
      <path
         id="path2939"
         d="M4 0 l-4,4"
         stroke-width="0.25"
         stroke="#000000"
         linecap="square" />
    </pattern>
    <marker
       orient="auto"
       id="DistanceX-4"
       style="overflow:visible"
       refX="0"
       refY="0">
      <path
         id="path2932"
         d="M 3,-3 -3,3 M 0,-5 0,5"
         style="stroke:#000000;stroke-width:0.5"
         inkscape:connector-curvature="0" />
    </marker>
    <pattern
       id="Hatch-22"
       x="0"
       y="0"
       patternUnits="userSpaceOnUse"
       width="8"
       height="8">
      <path
         id="path2983"
         d="M8 4 l-4,4"
         stroke-width="0.25"
         stroke="#000000"
         linecap="square" />
      <path
         id="path2985"
         d="M6 2 l-4,4"
         stroke-width="0.25"
         stroke="#000000"
         linecap="square" />
      <path
         id="path2987"
         d="M4 0 l-4,4"
         stroke-width="0.25"
         stroke="#000000"
         linecap="square" />
    </pattern>
    <marker
       orient="auto"
       id="DistanceX-8"
       style="overflow:visible"
       refX="0"
       refY="0">
      <path
         id="path2980"
         d="M 3,-3 -3,3 M 0,-5 0,5"
         style="stroke:#000000;stroke-width:0.5"
         inkscape:connector-curvature="0" />
    </marker>
    <pattern
       id="Hatch-8"
       x="0"
       y="0"
       patternUnits="userSpaceOnUse"
       width="8"
       height="8">
      <path
         id="path3033"
         d="M8 4 l-4,4"
         stroke-width="0.25"
         stroke="#000000"
         linecap="square" />
      <path
         id="path3035"
         d="M6 2 l-4,4"
         stroke-width="0.25"
         stroke="#000000"
         linecap="square" />
      <path
         id="path3037"
         d="M4 0 l-4,4"
         stroke-width="0.25"
         stroke="#000000"
         linecap="square" />
    </pattern>
    <marker
       orient="auto"
       id="DistanceX-9"
       style="overflow:visible"
       refX="0"
       refY="0">
      <path
         id="path3030"
         d="M 3,-3 -3,3 M 0,-5 0,5"
         style="stroke:#000000;stroke-width:0.5"
         inkscape:connector-curvature="0" />
    </marker>
    <pattern
       id="Hatch-80"
       x="0"
       y="0"
       patternUnits="userSpaceOnUse"
       width="8"
       height="8">
      <path
         id="path3183"
         d="M8 4 l-4,4"
         stroke-width="0.25"
         stroke="#000000"
         linecap="square" />
      <path
         id="path3185"
         d="M6 2 l-4,4"
         stroke-width="0.25"
         stroke="#000000"
         linecap="square" />
      <path
         id="path3187"
         d="M4 0 l-4,4"
         stroke-width="0.25"
         stroke="#000000"
         linecap="square" />
    </pattern>
    <marker
       orient="auto"
       id="DistanceX-0"
       style="overflow:visible"
       refX="0"
       refY="0">
      <path
         id="path3180"
         d="M 3,-3 -3,3 M 0,-5 0,5"
         style="stroke:#000000;stroke-width:0.5"
         inkscape:connector-curvature="0" />
    </marker>
  </defs>
  <sodipodi:namedview
     id="base"
     pagecolor="#000000"
     bordercolor="#666666"
     borderopacity="1.0"
     inkscape:pageopacity="1"
     inkscape:pageshadow="2"
     inkscape:zoom="0.77552461"
     inkscape:cx="428.2803"
     inkscape:cy="754.55853"
     inkscape:document-units="px"
     inkscape:current-layer="svg3748"
     showgrid="false"
     width="0px"
     height="0px"
     fit-margin-top="5"
     fit-margin-left="5"
     fit-margin-right="5"
     fit-margin-bottom="5"
     inkscape:window-width="1918"
     inkscape:window-height="1010"
     inkscape:window-x="0"
     inkscape:window-y="0"
     inkscape:window-maximized="1"
     units="mm" />
  <metadata
     id="metadata3753">
    <rdf:RDF>
      <cc:Work
         rdf:about="">
        <dc:format>image/svg+xml</dc:format>
        <dc:type
           rdf:resource="http://purl.org/dc/dcmitype/StillImage" />
        <dc:title></dc:title>
      </cc:Work>
    </rdf:RDF>
  </metadata>
  <g
     id="g4663"
     transform="matrix(0.49825255,0,0,0.4995544,230.25835,-383.92161)"
     style="fill:none;stroke:#ffffff;stroke-width:3.03027015;stroke-miterlimit:4;stroke-dasharray:none">
    <g
       id="g4735" />
  </g>
  <path
     id="rect4741"
     style="opacity:1;fill:none;fill-opacity:0.57324841;stroke:#ffffff;stroke-width:1.51181102;stroke-linecap:round;stroke-linejoin:round;stroke-miterlimit:4;stroke-dasharray:none;stroke-dashoffset:45;stroke-opacity:1"
     d="m 57.335938,99.289062 -15.472657,6.093748 6.69336,16.99219 -6.945313,2.65234 18.867188,5.09375 10.666015,-16.375 -7.052734,2.69336 -6.755859,-17.150388 z M 335.37489,113.89703 a 14.575205,14.632175 0 0 1 -14.5752,14.63216 14.575205,14.632175 0 0 1 -14.57521,-14.63216 14.575205,14.632175 0 0 1 14.57521,-14.63217 14.575205,14.632175 0 0 1 14.5752,14.63217 z m 45.58063,0 a 14.575205,14.632175 0 0 1 -14.57521,14.63216 14.575205,14.632175 0 0 1 -14.5752,-14.63216 14.575205,14.632175 0 0 1 14.5752,-14.63217 14.575205,14.632175 0 0 1 14.57521,14.63217 z m 50.35074,-5.05475 a 14.575205,14.632175 0 0 1 -14.5752,14.63217 14.575205,14.632175 0 0 1 -14.57521,-14.63217 14.575205,14.632175 0 0 1 14.57521,-14.632176 14.575205,14.632175 0 0 1 14.5752,14.632176 z m -144.95707,0 a 14.575205,14.632175 0 0 1 -14.5752,14.63217 14.575205,14.632175 0 0 1 -14.57521,-14.63217 14.575205,14.632175 0 0 1 14.57521,-14.632176 14.575205,14.632175 0 0 1 14.5752,14.632176 z m -0.61056,763.71249 c -5.33237,-0.15431 -10.69396,1.94102 -14.51901,5.67399 -3.82505,3.73297 -6.06287,9.05417 -6.05995,14.40959 0.0576,5.2198 2.23891,10.38464 5.93601,14.05532 3.69711,3.67062 8.86574,5.80307 14.0655,5.80307 5.19977,0 10.3684,-2.13245 14.0655,-5.80307 3.6971,-3.67068 5.8784,-8.83552 5.93602,-14.05532 0.002,-5.16219 -2.06968,-10.29596 -5.65169,-13.99956 -3.58202,-3.70364 -8.63245,-5.9347 -13.77238,-6.08402 z m 126.72919,-22.16898 c -5.86932,0.15587 -20.68852,9.17997 -23.17555,19.40659 -1.19301,4.90568 5.67003,10.77674 10.6034,9.93679 11.52285,-1.9619 24.46824,-14.40885 24.3537,-20.2937 -0.1039,-5.40867 -5.84323,-8.59923 -11.24674,-9.03409 -0.17,-0.0135 -0.34549,-0.0205 -0.53481,-0.0155 z M 159.3505,849.54544 c -0.0899,0 -0.17853,0 -0.26354,0.008 -5.40352,0.43491 -11.14282,3.63321 -11.24673,9.04193 -0.11453,5.88475 12.83084,18.33175 24.35371,20.29365 4.93337,0.83995 11.79641,-5.03891 10.60339,-9.94453 -2.52715,-10.39158 -17.78164,-19.53313 -23.44683,-19.3988 z m 292.27547,-23.80306 c -5.86929,0.15586 -20.68074,9.17996 -23.16778,19.40659 -1.19301,4.90562 5.66226,10.77668 10.59563,9.93673 11.52287,-1.96185 24.47601,-14.40885 24.36144,-20.29365 -0.10392,-5.40872 -5.84317,-8.59928 -11.24671,-9.03409 -0.17001,-0.0135 -0.35326,-0.0205 -0.54258,-0.0155 z m -332.44126,-1.1205 c -0.0899,0 -0.17853,0.008 -0.26353,0.0155 -5.40353,0.43481 -11.14282,3.62542 -11.24673,9.03409 -0.11454,5.88475 12.83083,18.33175 24.3537,20.29365 4.93337,0.83995 11.79642,-5.03111 10.6034,-9.93674 -2.52716,-10.39158 -17.78165,-19.54086 -23.44684,-19.40658 z m 228.02726,-50.95985 13.9286,25.59272 -0.41856,21.08739 13.57979,-8.85515 0,-18.13043 c 0,0 14.20654,-46.1858 13.86656,-46.10432 -1.89112,0.45354 -15.40127,3.65724 -15.40127,3.65724 l -6.16204,31.06299 -12.04511,-26.14523 -7.03793,2.83242 -0.008,0 -41.94078,-8.32602 0,6.27176 c -2.75423,-2.69295 -6.58018,-4.7106 -11.47151,-5.06569 -6.15869,-0.447 -24.09792,-0.64582 -24.09792,-0.64582 l -3.17792,37.92612 -14.88971,-35.46721 -18.01337,-2.45891 -2.41832,15.11911 0.3488,-2.91799 c -1.97718,-2.61222 -4.53794,-4.98685 -7.52624,-6.31842 -6.01775,-2.68146 -11.88446,-3.45102 -19.56358,-2.74685 l -28.44624,2.60678 24.34595,52.04922 14.22313,1.50955 -9.57251,-18.26276 c 4.3296,0.85234 6.32515,1.15747 11.62653,1.50961 4.41723,0.29344 7.52815,-0.0736 10.36311,-1.10497 l -2.15478,13.47723 13.01396,4.093 1.83699,-11.36851 18.26916,5.73484 c 2.03041,5.46907 4.10601,10.92525 6.27832,16.34077 l 17.24601,3.84397 -5.28617,-12.59796 2.7361,-24.4411 c 5.32489,-0.59092 7.20301,0.18808 8.41761,2.97245 0.22486,0.51494 6.06981,21.19799 6.27833,21.92774 0.93568,-0.0305 13.98284,-1.68854 13.98284,-1.68854 l -7.75102,-23.47621 c 5.97318,-4.86936 9.28111,-7.18305 10.49488,-18.12274 0.0746,-0.6726 0.0689,-1.38976 0.008,-2.12425 l 7.30143,1.35394 -2.44932,46.05762 13.41703,2.24879 2.96089,-45.74635 15.30051,2.84017 z M 164.64444,733.88396 c -6.60714,0 -11.95982,5.37356 -11.95982,12.00654 0,6.63299 5.35268,12.01439 11.95982,12.01439 6.60715,0 11.96758,-5.3814 11.96758,-12.01439 0,-6.63298 -5.36043,-12.00654 -11.96758,-12.00654 z m 350.8422,-13.4539 c -6.64462,0 -12.02958,8.91455 -12.02958,19.9046 0,10.99 5.38498,19.8968 12.02958,19.8968 6.6446,0 12.03732,-8.9068 12.03732,-19.8968 0,-10.99005 -5.39275,-19.9046 -12.03732,-19.9046 z m -458.139563,0 c -6.644591,0 -12.02958,8.91455 -12.02958,19.9046 0,10.99 5.384989,19.8968 12.02958,19.8968 6.644591,0 12.029585,-8.9068 12.029585,-19.8968 0,-10.99005 -5.384994,-19.9046 -12.029585,-19.9046 z M 158.49789,707.45084 c -6.60715,0 -11.96758,5.37356 -11.96758,12.00654 0,6.63298 5.36043,12.00654 11.96758,12.00654 6.60714,0 11.95982,-5.37356 11.95982,-12.00654 0,-6.63298 -5.35268,-12.00654 -11.95982,-12.00654 z m 149.78848,-4.69216 -57.05528,7.35334 c 1.70811,4.84677 3.42605,9.77298 5.18543,15.0724 1.13653,3.4234 2.30765,7.19748 3.46471,10.81606 l 51.15674,-5.27575 4.92965,-0.2257 c -0.1985,-0.85828 -0.3712,-1.73885 -0.58131,-2.59114 -0.78694,-3.19195 -1.17622,-4.85147 -2.20905,-8.69169 -1.03281,-3.84028 -2.11042,-7.63354 -3.24767,-11.37636 -0.52179,-1.71696 -1.09851,-3.38523 -1.64322,-5.08116 z m 38.87136,-5.01118 c -0.77662,0.034 -1.57543,0.34524 -2.25554,1.01159 l -20.91228,20.49597 c -2.76104,2.70514 -1.2348,4.8237 0.41859,5.87491 l 12.53338,7.96809 c 1.90033,1.20818 5.81141,1.86369 6.68138,-1.89091 l 6.79766,-29.32 c 0.57236,-2.47009 -1.27849,-4.22693 -3.26319,-4.13965 z m 40.24329,-4.56763 -18.85824,31.90339 20.47045,12.19333 18.85825,-31.9034 z M 152.34357,681.00988 c -6.60714,0 -11.95982,5.38135 -11.95982,12.01438 0,6.63293 5.35268,12.00654 11.95982,12.00654 6.60715,0 11.96758,-5.37361 11.96758,-12.00654 0,-6.63303 -5.36043,-12.01438 -11.96758,-12.01438 z m 213.18407,-16.3174 c -0.77661,0.034 -1.56766,0.35304 -2.24779,1.01934 l -20.91999,20.48823 c -2.76105,2.70508 -1.23486,4.82364 0.41853,5.87491 l 12.53341,7.96804 c 1.90033,1.20822 5.81917,1.87153 6.68912,-1.88307 l 6.78989,-29.32779 c 0.57239,-2.47015 -1.27846,-4.22693 -3.26317,-4.13966 z m -74.55708,-4.55983 -57.24127,4.89443 c 1.53509,3.43369 3.07546,6.96229 4.67386,10.80047 1.87806,4.50978 3.80537,9.3053 5.76676,14.4032 0.11044,0.2871 0.22259,0.62145 0.33329,0.91044 l 57.3188,-6.96429 c -1.24443,-3.18651 -2.52974,-6.34953 -3.87551,-9.44652 -1.48711,-3.422 -3.0414,-6.79119 -4.65836,-10.10014 -0.74527,-1.52519 -1.54374,-2.99713 -2.31757,-4.49759 z m -144.77354,-5.5559 c -6.60715,0 -11.96758,5.37356 -11.96758,12.00659 0,6.63294 5.36043,12.01439 11.96758,12.01439 6.60714,0 11.95982,-5.38145 11.95982,-12.01439 0,-6.63303 -5.35268,-12.00659 -11.95982,-12.00659 z m 267.53423,-7.4545 -18.85824,31.8956 20.47045,12.19338 18.85048,-31.89565 z m -29.82592,-15.48478 c -0.77665,0.034 -1.57543,0.35298 -2.25556,1.01934 l -20.92002,20.49596 c -2.76103,2.70514 -1.23483,4.82365 0.41858,5.87491 l 12.54112,7.96805 c 1.90033,1.20827 5.81141,1.86373 6.68141,-1.89087 l 6.79763,-29.32774 c 0.57236,-2.47014 -1.27846,-4.22693 -3.26316,-4.13965 z m -100.89506,-1.83642 c -0.15802,0 -0.32284,0 -0.48056,0.007 -1.26174,0.0543 -2.50895,0.32286 -3.65848,0.72365 -2.65485,0.92558 -5.49348,2.55477 -6.89065,5.20571 -1.17518,2.22981 -1.26405,5.10235 -0.3333,7.42338 0.92005,2.2942 2.98175,4.10199 5.20868,5.00338 2.4367,0.98627 5.35966,0.98912 7.80529,0.039 2.74664,-1.0672 5.24557,-3.27138 6.47985,-5.99156 1.01212,-2.23056 1.17473,-5.02941 0.18603,-7.32221 -0.92782,-2.15174 -2.94715,-3.76794 -5.06919,-4.5443 -1.03822,-0.37986 -2.14159,-0.54477 -3.24767,-0.54472 z m -142.96756,-1.65742 c -6.60715,0 -11.95982,5.37361 -11.95982,12.00659 0,6.63294 5.35267,12.00654 11.95982,12.00654 6.60714,0 11.96757,-5.3736 11.96757,-12.00654 0,-6.63298 -5.36043,-12.00659 -11.96757,-12.00659 z m 300.011,-27.08674 -18.85048,31.9034 20.47043,12.19327 18.85049,-31.90339 z m -42.37484,-11.45413 c -7.69526,-0.031 -16.32491,7.36353 -15.75007,20.02914 0.28893,6.36632 3.03843,12.52128 13.53328,17.91257 l -0.46506,4.45093 6.18532,-0.35019 -1.05415,-4.21744 c 6.36013,-2.64299 12.49797,-6.33635 12.8357,-17.21225 0.37931,-12.2153 -6.793,-20.57844 -15.28502,-20.61276 z M 290.46675,582.7163 c -0.16802,0.005 -0.33968,0.015 -0.51157,0.039 -2.24985,0.31297 -3.6707,1.32786 -4.27856,3.52495 -0.41369,1.49527 -0.39913,4.38844 0.23253,5.80483 0.73537,1.64903 2.23512,3.32668 4.00727,3.64165 1.82294,0.32406 3.80515,-1.47094 4.93742,-2.94128 1.32906,-1.72591 1.81568,-3.44193 1.07738,-5.49365 -0.88436,-2.45766 -2.94404,-4.62937 -5.46447,-4.57542 z m -14.55641,-1.29944 c -1.26551,0.008 -2.49519,0.38501 -3.57324,1.15163 -2.0948,1.48967 -3.6097,3.46695 -3.78248,6.03831 -0.11456,1.70488 0.77436,3.62317 2.00751,4.80107 1.62898,1.55591 4.09371,3.12316 6.24733,2.47444 3.70169,-1.11501 5.65346,-4.56713 5.47222,-8.44272 -0.11298,-2.41614 -1.79881,-4.88509 -4.0848,-5.64926 -0.75206,-0.25138 -1.52724,-0.37831 -2.28654,-0.37347 z m 83.18396,-22.93934 c -9.97002,0.24624 -15.27934,7.19019 -14.72694,20.50377 0.33782,8.26597 6.13184,19.0489 16.4554,22.48804 l -1.35641,4.0929 6.55736,-0.49017 -1.73623,-4.10074 c 9.97878,-3.79871 13.02109,-12.22669 12.75042,-21.61652 -0.40155,-13.93167 -9.50124,-21.08274 -17.9436,-20.87728 z m -73.96799,-1.09717 c -4.62945,0 -8.38663,3.7641 -8.38663,8.4116 0,4.64755 3.75718,8.41939 8.38663,8.41939 4.62941,0 8.37885,-3.77184 8.37885,-8.41939 0,-4.6475 -3.74944,-8.4116 -8.37885,-8.4116 z m -155.22969,-6.78529 c -1.90357,0.0385 -3.79356,0.71286 -5.22418,2.00756 -4.19952,3.80051 -4.50737,11.87006 2.39506,12.95589 -5.02331,5.29073 0.0795,11.69337 6.27057,12.52013 l -1.61996,1.64963 47.62227,24.97807 c 3.03664,1.58364 4.11141,-0.86108 2.24004,-3.49383 l -31.69392,-44.58693 -2.06952,3.04248 c 0.42652,-6.07163 -8.44425,-7.66796 -10.37862,-3.88288 -1.16416,-3.55089 -4.36911,-5.25447 -7.54174,-5.19012 z M 80.832664,533.65512 c -0.666153,0.0547 -1.256822,0.58637 -0.883616,1.61076 -0.774703,-0.94121 -1.496152,-0.14612 -1.472695,0.70027 -0.900875,-1.54682 -2.584112,-1.34105 -3.239922,-0.10116 -0.450251,-1.49027 -3.502665,-2.29695 -3.774746,0.42023 -0.827015,-1.86509 -2.713608,-0.3409 -2.867877,1.33056 -1.133325,-1.6228 -3.853575,-1.75493 -2.852376,1.07385 -1.461285,-0.98558 -2.291852,-0.52179 -2.395065,0.2179 -0.833173,-0.68004 -2.261235,-0.32256 -2.402818,1.82078 -2.230851,-1.3996 -2.271813,3.64849 0.186027,3.79731 -1.450782,0.88896 -0.795251,2.33452 0.720842,2.49003 -0.445014,0.73629 -0.305927,2.11571 0.42631,2.79351 -1.785154,-0.96404 -1.821417,1.38156 -0.961129,1.94531 -2.208973,0.21886 -0.823392,3.39617 1.387434,3.31484 -0.703996,1.27886 1.01503,2.17462 2.286551,1.89861 -0.95827,0.75648 -1.667916,1.2957 -2.441572,1.7975 8.649469,7.96864 17.472989,15.57915 27.105312,22.06781 6.007491,-3.43253 11.565026,-8.05621 15.114496,-14.44991 -6.162861,-10.07276 -14.684444,-21.93153 -22.32294,-32.04346 -0.214996,0.19622 -0.240701,0.23688 -0.279041,0.5525 0.07722,-0.87277 -0.667021,-1.29195 -1.333175,-1.23724 z m 194.232796,-6.17834 c -4.62942,0 -8.37884,3.77183 -8.37884,8.41934 0,4.64755 3.74942,8.41159 8.37884,8.41159 4.62943,0 8.37887,-3.76404 8.37887,-8.41159 0,-4.64751 -3.74944,-8.41934 -8.37887,-8.41934 z m 145.8122,-2.53674 c -5.74555,-0.022 -12.35832,3.23831 -16.86621,9.31424 -6.18041,8.33032 -8.45075,22.3105 3.21668,31.55326 l -3.09267,2.98798 6.68141,2.98029 0,-4.97226 c 9.32411,0.87442 16.50436,-4.1498 22.02837,-14.28651 3.58598,-6.58038 2.14251,-20.41384 -4.94513,-25.46823 -1.97697,-1.40984 -4.41081,-2.09873 -7.02245,-2.10877 z m -334.472011,-14.77672 -9.045441,9.07306 4.712622,5.09675 1.658718,-0.36572 c -0.791629,2.85425 -0.52766,6.69662 2.030767,9.44647 2.558418,2.7499 5.959903,2.05102 8.905921,6.22505 l 10.595644,15.00237 c 3.12512,4.50952 6.52916,4.50303 10.14609,1.11275 l 6.01479,-6.02272 c 3.75428,-3.41566 1.62658,-6.69463 0,-9.63326 -4.58685,-5.56554 -10.79053,-7.38117 -15.37028,-12.24003 -2.05089,-2.17591 -2.30768,-5.29413 -4.97615,-8.70729 -2.59751,-3.32243 -5.928727,-3.07455 -9.781789,-2.59898 l 0.186027,-1.2917 z M 265.50072,497.6276 c -4.62944,0 -8.38661,3.77189 -8.38661,8.41939 0,4.64756 3.75717,8.4116 8.38661,8.4116 4.62942,0 8.37885,-3.76404 8.37885,-8.4116 0,-4.6475 -3.74943,-8.41939 -8.37885,-8.41939 z M 198.4699,474.37704 c -0.52087,0.0205 -0.87498,0.64643 -1.18591,1.93757 l -7.40222,30.74398 c -0.66303,2.61951 0.48618,3.71743 2.99189,2.92574 l 27.22933,-8.60612 c 2.69909,-0.85274 2.81376,-2.70204 0.78286,-4.76995 L 200.0511,475.38864 c -0.66945,-0.68164 -1.17608,-1.02768 -1.5812,-1.0116 z M 320.84303,425.8839 c -8.92226,0.0425 -22.08064,7.85299 -22.99729,16.16178 -0.42813,3.88064 5.96315,11.74647 11.9443,11.71865 7.54662,-0.035 21.88675,-8.37808 22.2842,-14.55882 0.38527,-6.07767 -6.0575,-13.34629 -11.23121,-13.32161 z M 178.83656,411.34841 c -0.52087,0.0205 -0.87498,0.63863 -1.1859,1.92973 l -7.40223,30.75177 c -0.66303,2.61951 0.48619,3.71744 2.9919,2.92579 l 27.22933,-8.60612 c 2.69909,-0.85279 2.81376,-2.70209 0.78285,-4.76995 l -20.83474,-21.21967 c -0.66945,-0.68164 -1.17609,-1.02763 -1.58121,-1.01155 z m 22.43921,-8.3494 c -1.54185,-0.013 -3.02642,0.47747 -4.27857,1.72751 -2.62589,2.62141 -2.23604,8.44811 -0.26353,13.15037 3.03904,7.24494 6.23881,10.67688 11.14596,14.38767 5.2613,-0.70927 9.98389,-3.9828 11.59553,-8.88623 -2.58351,-5.70886 -4.60985,-11.74202 -9.91355,-16.51976 -2.18497,-1.96825 -5.34232,-3.83483 -8.28584,-3.85956 z m 198.03082,-0.35788 c -8.32078,0.0395 -20.59222,7.32372 -21.44706,15.07241 -0.39929,3.61897 5.56024,10.95867 11.1382,10.93269 7.03785,-0.033 20.40982,-7.81433 20.78048,-13.57838 0.3593,-5.6679 -5.64669,-12.44975 -10.47162,-12.42672 z m -81.64925,-10.69936 c -0.80236,0.0135 -1.72365,0.13983 -2.75162,0.3969 l -26.00467,6.50515 c -3.78632,0.94675 -4.77143,3.57296 -3.28643,6.30288 l 7.44875,13.67954 c 1.29803,2.38622 3.76325,2.31684 6.47209,-0.3891 l 19.43179,-19.40654 c 3.93457,-3.93029 3.0228,-7.16181 -1.30991,-7.08883 z m -67.27111,-4.78548 c -4.02858,0.21871 -6.57916,6.29783 -7.10769,10.67593 -0.39226,3.24925 -0.0976,8.70444 0.99988,11.81206 1.85154,5.24258 5.90612,8.21837 10.13059,6.78535 5.5626,-1.88702 6.58369,-9.16328 5.63499,-14.69894 -1.12319,-6.55365 -5.14518,-14.4074 -9.26247,-14.5744 -0.133,-0.005 -0.26535,-0.007 -0.3953,0 z m -89.52428,-34.93808 c -0.52087,0.0205 -0.86723,0.64637 -1.17816,1.93752 l -7.40997,30.74398 c -0.66303,2.61951 0.48618,3.71743 2.99189,2.92579 l 27.23709,-8.60618 c 2.69908,-0.85274 2.81375,-2.70204 0.78285,-4.76994 l -20.8425,-21.21963 c -0.66945,-0.68164 -1.17608,-1.02763 -1.5812,-1.01154 z m 283.11375,-0.43576 c -0.17826,0.005 -0.35111,0.0215 -0.52707,0.039 -5.72506,0.57429 -13.01139,14.26643 -12.79692,21.32858 0.17,5.59725 7.68909,11.32035 11.27773,10.79272 7.68372,-1.12969 14.49904,-13.70273 14.2464,-22.05228 -0.14193,-4.69027 -6.6736,-10.27224 -12.20014,-10.10788 z M 88.947983,346.81792 c -0.886865,-0.0205 -1.612336,0.71806 -1.860246,2.29551 l -4.960652,31.57658 c -0.393341,2.50292 0.49182,3.23866 2.449324,1.95311 l 7.130936,-4.68432 4.441339,13.8974 12.696166,-4.80886 -5.46447,-13.43831 9.31673,1.50176 c 2.26597,0.36522 2.9688,-0.9603 1.35643,-2.66897 L 90.893489,347.89956 c -0.656751,-0.69598 -1.338699,-1.0677 -1.945506,-1.08164 z M 78.747642,275.3232 c -0.702611,0.007 -1.350334,0.68279 -1.82924,2.06985 l -10.944441,31.67774 c -1.158118,3.04509 0.778893,4.0944 3.31744,2.2488 l 7.231698,-5.26016 1.402934,14.76893 13.812318,-2.52895 -3.162418,-14.11531 8.030057,3.89848 c 2.3622,1.20997 3.48168,-0.13893 2.100528,-2.35001 L 80.646642,276.82501 c -0.622108,-0.99591 -1.279049,-1.50776 -1.899,-1.50181 z m 10.324356,-72.00827 c -0.895265,0.026 -1.925084,0.76212 -2.953138,2.19434 l -17.796341,24.78349 c -1.475261,2.05517 -1.017327,3.49469 1.480443,3.14365 l 7.309216,-1.02713 -3.914267,13.25158 15.308266,3.0269 0.85261,-15.10353 7.29371,4.83219 c 2.106039,1.3954 3.501693,0.58128 2.650848,-2.63006 l -7.89829,-29.82579 c -0.475701,-1.79545 -1.318416,-2.67527 -2.333057,-2.64564 z" />
</svg>
