  0
SECTION
  2
HEADER
  9
$ACADVER
  1
AC1014
  9
$HANDSEED
  5
FFFF
  9
$MEASUREMENT
 70
     1
  0
ENDSEC
  0
SECTION
  2
TABLES
  0
TABLE
  2
VPORT
  5
8
330
0
100
AcDbSymbolTable
 70
     4
  0
VPORT
  5
2E
330
8
100
AcDbSymbolTableRecord
100
AcDbViewportTableRecord
  2
*ACTIVE
 70
     0
 10
0.0
 20
0.0
 11
1.0
 21
1.0
 12
210.0
 22
148.5
 13
0.0
 23
0.0
 14
10.0
 24
10.0
 15
10.0
 25
10.0
 16
0.0
 26
0.0
 36
1.0
 17
0.0
 27
0.0
 37
0.0
 40
341.0
 41
1.24
 42
50.0
 43
0.0
 44
0.0
 50
0.0
 51
0.0
 71
     0
 72
   100
 73
     1
 74
     3
 75
     0
 76
     0
 77
     0
 78
     0
  0
ENDTAB
  0
TABLE
  2
LTYPE
  5
5
330
0
100
AcDbSymbolTable
 70
     1
  0
LTYPE
  5
14
330
5
100
AcDbSymbolTableRecord
100
AcDbLinetypeTableRecord
  2
BYBLOCK
 70
     0
  3

 72
    65
 73
     0
 40
0.0
  0
LTYPE
  5
15
330
5
100
AcDbSymbolTableRecord
100
AcDbLinetypeTableRecord
  2
BYLAYER
 70
     0
  3

 72
    65
 73
     0
 40
0.0
  0
LTYPE
  5
16
330
5
100
AcDbSymbolTableRecord
100
AcDbLinetypeTableRecord
  2
CONTINUOUS
 70
     0
  3
Solid line
 72
    65
 73
     0
 40
0.0
  0
ENDTAB
  0
TABLE
  2
LAYER
  5
2
100
AcDbSymbolTable
 70
2
  0
LAYER
  5
50
100
AcDbSymbolTableRecord
100
AcDbLayerTableRecord
  2
0
 70
0
  6
CONTINUOUS
  0
LAYER
  5
51
100
AcDbSymbolTableRecord
100
AcDbLayerTableRecord
  2
inserts
 70
0
  6
CONTINUOUS
  0
ENDTAB
  0
TABLE
  2
STYLE
  5
3
330
0
100
AcDbSymbolTable
 70
     1
  0
STYLE
  5
11
330
3
100
AcDbSymbolTableRecord
100
AcDbTextStyleTableRecord
  2
STANDARD
 70
     0
 40
0.0
 41
1.0
 50
0.0
 71
     0
 42
2.5
  3
txt
  4

  0
ENDTAB
  0
TABLE
  2
VIEW
  5
6
330
0
100
AcDbSymbolTable
 70
     0
  0
ENDTAB
  0
TABLE
  2
UCS
  5
7
330
0
100
AcDbSymbolTable
 70
     0
  0
ENDTAB
  0
TABLE
  2
APPID
  5
9
330
0
100
AcDbSymbolTable
 70
     2
  0
APPID
  5
12
330
9
100
AcDbSymbolTableRecord
100
AcDbRegAppTableRecord
  2
ACAD
 70
     0
  0
ENDTAB
  0
TABLE
  2
DIMSTYLE
  5
A
330
0
100
AcDbSymbolTable
 70
     1
  0
DIMSTYLE
105
27
330
A
100
AcDbSymbolTableRecord
100
AcDbDimStyleTableRecord
  2
ISO-25
 70
     0
  3

  4

  5

  6

  7

 40
1.0
 41
2.5
 42
0.625
 43
3.75
 44
1.25
 45
0.0
 46
0.0
 47
0.0
 48
0.0
140
2.5
141
2.5
142
0.0
143
0.03937007874016
144
1.0
145
0.0
146
1.0
147
0.625
 71
     0
 72
     0
 73
     0
 74
     0
 75
     0
 76
     0
 77
     1
 78
     8
170
     0
171
     3
172
     1
173
     0
174
     0
175
     0
176
     0
177
     0
178
     0
270
     2
271
     2
272
     2
273
     2
274
     3
340
11
275
     0
280
     0
281
     0
282
     0
283
     0
284
     8
285
     0
286
     0
287
     3
288
     0
  0
ENDTAB
  0
TABLE
  2
BLOCK_RECORD
  5
1
330
0
100
AcDbSymbolTable
 70
     1
  0
BLOCK_RECORD
  5
1F
330
1
100
AcDbSymbolTableRecord
100
AcDbBlockTableRecord
  2
*MODEL_SPACE
  0
BLOCK_RECORD
  5
1B
330
1
100
AcDbSymbolTableRecord
100
AcDbBlockTableRecord
  2
*PAPER_SPACE
  0
ENDTAB
  0
ENDSEC
  0
SECTION
  2
BLOCKS
  0
BLOCK
  5
20
330
1F
100
AcDbEntity
  8
0
100
AcDbBlockBegin
  2
*MODEL_SPACE
 70
     0
 10
0.0
 20
0.0
 30
0.0
  3
*MODEL_SPACE
  1

  0
ENDBLK
  5
21
330
1F
100
AcDbEntity
  8
0
100
AcDbBlockEnd
  0
BLOCK
  5
1C
330
1B
100
AcDbEntity
 67
     1
  8
0
100
AcDbBlockBegin
  2
*PAPER_SPACE
  1

  0
ENDBLK
  5
1D
330
1B
100
AcDbEntity
 67
     1
  8
0
100
AcDbBlockEnd
  0
ENDSEC
  0
SECTION
  2
ENTITIES
  0
LWPOLYLINE
  5
100
100
AcDbEntity
  8
inserts
 62
7
100
AcDbPolyline
 90
33
 70
0
 10
299.631806
 20
235.897138
 30
0.0
 10
295.102859
 20
235.561039
 30
0.0
 10
290.728468
 20
234.333852
 30
0.0
 10
286.675655
 20
232.280545
 30
0.0
 10
283.111451
 20
229.466168
 30
0.0
 10
280.197464
 20
225.982925
 30
0.0
 10
278.030449
 20
221.989735
 30
0.0
 10
276.680117
 20
217.651782
 30
0.0
 10
276.216181
 20
213.134138
 30
0.0
 10
276.707617
 20
208.734180
 30
0.0
 10
278.040366
 20
204.510471
 30
0.0
 10
280.149585
 20
200.616002
 30
0.0
 10
282.970430
 20
197.203681
 30
0.0
 10
286.413812
 20
194.420829
 30
0.0
 10
290.331426
 20
192.354877
 30
0.0
 10
294.569622
 20
191.069016
 30
0.0
 10
298.974756
 20
190.626351
 30
0.0
 10
303.379892
 20
191.069016
 30
0.0
 10
307.618093
 20
192.354877
 30
0.0
 10
311.535707
 20
194.420800
 30
0.0
 10
314.979084
 20
197.203681
 30
0.0
 10
317.799923
 20
200.616002
 30
0.0
 10
319.909142
 20
204.510471
 30
0.0
 10
321.241897
 20
208.734180
 30
0.0
 10
321.733333
 20
213.134138
 30
0.0
 10
321.303043
 20
217.491451
 30
0.0
 10
320.047583
 20
221.687700
 30
0.0
 10
318.027318
 20
225.574013
 30
0.0
 10
315.302604
 20
229.001405
 30
0.0
 10
311.957012
 20
231.825969
 30
0.0
 10
308.131952
 20
233.959936
 30
0.0
 10
303.974520
 20
235.338564
 30
0.0
 10
299.631806
 20
235.897138
 30
0.0
  0
LWPOLYLINE
  5
101
100
AcDbEntity
  8
inserts
 62
7
100
AcDbPolyline
 90
25
 70
0
 10
443.829728
 20
261.023721
 30
0.0
 10
437.289905
 20
259.142371
 30
0.0
 10
429.201459
 20
254.306268
 30
0.0
 10
421.834612
 20
247.329960
 30
0.0
 10
417.459583
 20
239.028026
 30
0.0
 10
417.982679
 20
234.788710
 30
0.0
 10
420.878014
 20
230.954749
 30
0.0
 10
425.080382
 20
228.341823
 30
0.0
 10
429.524583
 20
227.765582
 30
0.0
 10
439.404004
 20
231.359654
 30
0.0
 10
448.345509
 20
237.598768
 30
0.0
 10
454.804221
 20
244.671596
 30
0.0
 10
457.235283
 20
250.766693
 30
0.0
 10
456.050486
 20
254.883497
 30
0.0
 10
453.098075
 20
258.000387
 30
0.0
 10
449.014997
 20
260.060299
 30
0.0
 10
444.438255
 20
261.006082
 30
0.0
 10
444.291867
 20
261.016242
 30
0.0
 10
444.142233
 20
261.023015
 30
0.0
 10
443.988478
 20
261.025838
 30
0.0
 10
443.829728
 20
261.023015
 30
0.0
 10
443.829728
 20
261.022987
 30
0.0
 10
443.829728
 20
261.022931
 30
0.0
 10
443.829728
 20
261.022902
 30
0.0
 10
443.829728
 20
261.023721
 30
0.0
  0
LWPOLYLINE
  5
102
100
AcDbEntity
  8
inserts
 62
7
100
AcDbPolyline
 90
25
 70
0
 10
155.821944
 20
261.976221
 30
0.0
 10
155.745526
 20
261.976221
 30
0.0
 10
155.669914
 20
261.976221
 30
0.0
 10
155.595352
 20
261.973399
 30
0.0
 10
155.522083
 20
261.968883
 30
0.0
 10
150.945333
 20
261.021717
 30
0.0
 10
146.862275
 20
258.958786
 30
0.0
 10
143.909867
 20
255.838847
 30
0.0
 10
142.725069
 20
251.720660
 30
0.0
 10
145.156120
 20
245.625592
 30
0.0
 10
151.614838
 20
238.552764
 30
0.0
 10
160.556346
 20
232.313621
 30
0.0
 10
170.435764
 20
228.719549
 30
0.0
 10
174.879967
 20
229.297174
 30
0.0
 10
179.082339
 20
231.913148
 30
0.0
 10
181.977673
 20
235.750128
 30
0.0
 10
182.500764
 20
239.990828
 30
0.0
 10
178.025572
 20
248.416487
 30
0.0
 10
170.500322
 20
255.458073
 30
0.0
 10
162.305588
 20
260.262737
 30
0.0
 10
155.821944
 20
261.977688
 30
0.0
 10
155.821944
 20
261.977660
 30
0.0
 10
155.821944
 20
261.977660
 30
0.0
 10
155.821944
 20
261.977632
 30
0.0
 10
155.821944
 20
261.976221
 30
0.0
  0
LWPOLYLINE
  5
103
100
AcDbEntity
  8
inserts
 62
7
100
AcDbPolyline
 90
25
 70
0
 10
488.385561
 20
288.954916
 30
0.0
 10
481.847121
 20
287.073538
 30
0.0
 10
473.761737
 20
282.237434
 30
0.0
 10
466.397910
 20
275.261126
 30
0.0
 10
462.024256
 20
266.959193
 30
0.0
 10
462.545972
 20
262.719905
 30
0.0
 10
465.438270
 20
258.885944
 30
0.0
 10
469.637595
 20
256.273018
 30
0.0
 10
474.080422
 20
255.696776
 30
0.0
 10
483.961220
 20
259.290848
 30
0.0
 10
492.905773
 20
265.529991
 30
0.0
 10
499.367505
 20
272.602791
 30
0.0
 10
501.799922
 20
278.697888
 30
0.0
 10
500.615125
 20
282.814691
 30
0.0
 10
497.662714
 20
285.931610
 30
0.0
 10
493.579664
 20
287.991494
 30
0.0
 10
489.002922
 20
288.937248
 30
0.0
 10
488.855151
 20
288.947408
 30
0.0
 10
488.702497
 20
288.954182
 30
0.0
 10
488.545694
 20
288.957004
 30
0.0
 10
488.385561
 20
288.954182
 30
0.0
 10
488.385561
 20
288.954154
 30
0.0
 10
488.385561
 20
288.954125
 30
0.0
 10
488.385561
 20
288.954097
 30
0.0
 10
488.385561
 20
288.954916
 30
0.0
  0
LWPOLYLINE
  5
104
100
AcDbEntity
  8
inserts
 62
7
100
AcDbPolyline
 90
25
 70
0
 10
110.119583
 20
290.224916
 30
0.0
 10
110.043166
 20
290.222093
 30
0.0
 10
109.967553
 20
290.217860
 30
0.0
 10
109.892990
 20
290.212780
 30
0.0
 10
109.819722
 20
290.207136
 30
0.0
 10
105.242972
 20
289.261381
 30
0.0
 10
101.159914
 20
287.201497
 30
0.0
 10
98.207505
 20
284.084578
 30
0.0
 10
97.022708
 20
279.967775
 30
0.0
 10
99.453756
 20
273.872678
 30
0.0
 10
105.912477
 20
266.799878
 30
0.0
 10
114.853985
 20
260.560735
 30
0.0
 10
124.733403
 20
256.966664
 30
0.0
 10
129.177606
 20
257.542905
 30
0.0
 10
133.379978
 20
260.155831
 30
0.0
 10
136.275312
 20
263.989792
 30
0.0
 10
136.798403
 20
268.229080
 30
0.0
 10
132.323205
 20
276.656151
 30
0.0
 10
124.797955
 20
283.700756
 30
0.0
 10
116.603224
 20
288.508440
 30
0.0
 10
110.119583
 20
290.224803
 30
0.0
 10
110.119583
 20
290.224831
 30
0.0
 10
110.119583
 20
290.224859
 30
0.0
 10
110.119583
 20
290.224887
 30
0.0
 10
110.119583
 20
290.224916
 30
0.0
  0
LWPOLYLINE
  5
105
100
AcDbEntity
  8
inserts
 62
7
100
AcDbPolyline
 90
189
 70
0
 10
369.578805
 20
347.983443
 30
0.0
 10
373.540943
 20
340.731658
 30
0.0
 10
377.503083
 20
333.479874
 30
0.0
 10
381.465221
 20
326.228089
 30
0.0
 10
385.427361
 20
318.976304
 30
0.0
 10
385.308297
 20
313.001124
 30
0.0
 10
385.189236
 20
307.025943
 30
0.0
 10
385.070172
 20
301.050762
 30
0.0
 10
384.951111
 20
295.075582
 30
0.0
 10
388.814028
 20
297.584735
 30
0.0
 10
392.676944
 20
300.093860
 30
0.0
 10
396.539861
 20
302.602985
 30
0.0
 10
400.402778
 20
305.112138
 30
0.0
 10
400.402778
 20
310.249457
 30
0.0
 10
400.402778
 20
315.386776
 30
0.0
 10
400.402778
 20
320.524096
 30
0.0
 10
400.402778
 20
325.661415
 30
0.0
 10
402.922486
 20
333.839284
 30
0.0
 10
408.436829
 20
351.823669
 30
0.0
 10
413.878641
 20
369.790726
 30
0.0
 10
416.180750
 20
377.916638
 30
0.0
 10
412.534797
 20
377.052106
 30
0.0
 10
406.611712
 20
375.651296
 30
0.0
 10
401.092091
 20
374.346893
 30
0.0
 10
398.656528
 20
373.771499
 30
0.0
 10
396.903668
 20
364.969693
 30
0.0
 10
395.150806
 20
356.167888
 30
0.0
 10
393.397943
 20
347.366082
 30
0.0
 10
391.645084
 20
338.564276
 30
0.0
 10
388.218722
 20
345.972610
 30
0.0
 10
384.792361
 20
353.380943
 30
0.0
 10
381.366000
 20
360.789276
 30
0.0
 10
377.939639
 20
368.197610
 30
0.0
 10
375.937625
 20
367.395026
 30
0.0
 10
373.935611
 20
366.592471
 30
0.0
 10
371.933597
 20
365.789887
 30
0.0
 10
369.931583
 20
364.987332
 30
0.0
 10
369.929325
 20
364.987332
 30
0.0
 10
369.927068
 20
364.987332
 30
0.0
 10
369.924810
 20
364.987332
 30
0.0
 10
369.922552
 20
364.987332
 30
0.0
 10
357.992045
 20
367.346540
 30
0.0
 10
346.061538
 20
369.705721
 30
0.0
 10
334.131031
 20
372.064929
 30
0.0
 10
322.200524
 20
374.424138
 30
0.0
 10
322.200524
 20
372.647012
 30
0.0
 10
322.200524
 20
370.869887
 30
0.0
 10
322.200524
 20
369.092790
 30
0.0
 10
322.200524
 20
367.315665
 30
0.0
 10
319.621580
 20
369.443847
 30
0.0
 10
316.586015
 20
371.180078
 30
0.0
 10
313.094514
 20
372.419457
 30
0.0
 10
309.147746
 20
373.057138
 30
0.0
 10
301.907095
 20
373.385278
 30
0.0
 10
292.810077
 20
373.613172
 30
0.0
 10
285.026983
 20
373.746014
 30
0.0
 10
281.728108
 20
373.789138
 30
0.0
 10
280.824113
 20
363.042652
 30
0.0
 10
279.920121
 20
352.296137
 30
0.0
 10
279.016127
 20
341.549651
 30
0.0
 10
278.112135
 20
330.803165
 30
0.0
 10
273.876598
 20
340.852929
 30
0.0
 10
269.641058
 20
350.902665
 30
0.0
 10
265.405520
 20
360.952429
 30
0.0
 10
261.169983
 20
371.002193
 30
0.0
 10
256.045885
 20
371.698915
 30
0.0
 10
250.921788
 20
372.395665
 30
0.0
 10
245.797691
 20
373.092387
 30
0.0
 10
240.673594
 20
373.789138
 30
0.0
 10
239.985677
 20
369.505089
 30
0.0
 10
239.297760
 20
365.221040
 30
0.0
 10
238.609844
 20
360.937020
 30
0.0
 10
237.921927
 20
356.652971
 30
0.0
 10
238.021145
 20
357.479798
 30
0.0
 10
238.120363
 20
358.306596
 30
0.0
 10
238.219584
 20
359.133422
 30
0.0
 10
238.318802
 20
359.960249
 30
0.0
 10
236.509783
 20
362.116031
 30
0.0
 10
234.468399
 20
364.085237
 30
0.0
 10
232.211299
 20
365.782296
 30
0.0
 10
229.755121
 20
367.121638
 30
0.0
 10
224.617006
 20
369.002508
 30
0.0
 10
219.333882
 20
370.117314
 30
0.0
 10
213.696307
 20
370.512594
 30
0.0
 10
207.494844
 20
370.234916
 30
0.0
 10
199.403002
 20
369.496284
 30
0.0
 10
191.311163
 20
368.757652
 30
0.0
 10
183.219321
 20
368.019020
 30
0.0
 10
175.127483
 20
367.280388
 30
0.0
 10
182.052951
 20
352.532075
 30
0.0
 10
188.978419
 20
337.783763
 30
0.0
 10
195.903890
 20
323.035450
 30
0.0
 10
202.829358
 20
308.287138
 30
0.0
 10
206.875278
 20
307.859374
 30
0.0
 10
210.921196
 20
307.431638
 30
0.0
 10
214.967117
 20
307.003902
 30
0.0
 10
219.013038
 20
306.576137
 30
0.0
 10
216.290034
 20
311.750936
 30
0.0
 10
213.567030
 20
316.925762
 30
0.0
 10
210.844028
 20
322.100589
 30
0.0
 10
208.121024
 20
327.275388
 30
0.0
 10
211.418142
 20
326.656644
 30
0.0
 10
214.320961
 20
326.207318
 30
0.0
 10
217.431104
 20
325.864276
 30
0.0
 10
221.350191
 20
325.564415
 30
0.0
 10
224.859407
 20
325.455421
 30
0.0
 10
227.921137
 20
325.627548
 30
0.0
 10
230.645293
 20
326.081221
 30
0.0
 10
233.141788
 20
326.816776
 30
0.0
 10
232.528835
 20
322.997971
 30
0.0
 10
231.915885
 20
319.179138
 30
0.0
 10
231.302933
 20
315.360332
 30
0.0
 10
230.689983
 20
311.541499
 30
0.0
 10
234.391945
 20
310.381735
 30
0.0
 10
238.093905
 20
309.221999
 30
0.0
 10
241.795867
 20
308.062235
 30
0.0
 10
245.497830
 20
306.902471
 30
0.0
 10
246.020381
 20
310.123784
 30
0.0
 10
246.542933
 20
313.345096
 30
0.0
 10
247.065487
 20
316.566381
 30
0.0
 10
247.588038
 20
319.787693
 30
0.0
 10
252.784895
 20
318.162714
 30
0.0
 10
257.981752
 20
316.537735
 30
0.0
 10
263.178612
 20
314.912728
 30
0.0
 10
268.375469
 20
313.287749
 30
0.0
 10
270.118744
 20
308.641948
 30
0.0
 10
271.886796
 20
304.004557
 30
0.0
 10
273.685121
 20
299.378568
 30
0.0
 10
275.519219
 20
294.766915
 30
0.0
 10
280.425031
 20
293.677707
 30
0.0
 10
285.330844
 20
292.588527
 30
0.0
 10
290.236656
 20
291.499318
 30
0.0
 10
295.142468
 20
290.410110
 30
0.0
 10
293.638760
 20
293.979798
 30
0.0
 10
292.135052
 20
297.549457
 30
0.0
 10
290.631344
 20
301.119145
 30
0.0
 10
289.127636
 20
304.688804
 30
0.0
 10
289.905948
 20
311.614284
 30
0.0
 10
290.684260
 20
318.539735
 30
0.0
 10
291.462573
 20
325.465214
 30
0.0
 10
292.240885
 20
332.390665
 30
0.0
 10
296.099182
 20
332.590592
 30
0.0
 10
298.783671
 20
332.140729
 30
0.0
 10
300.591245
 20
330.973599
 30
0.0
 10
301.818802
 20
329.021638
 30
0.0
 10
303.009591
 20
325.008409
 30
0.0
 10
305.397651
 20
316.686353
 30
0.0
 10
307.782225
 20
308.318606
 30
0.0
 10
308.962552
 20
304.168443
 30
0.0
 10
311.897683
 20
304.482048
 30
0.0
 10
317.316937
 20
305.138300
 30
0.0
 10
322.536566
 20
305.788088
 30
0.0
 10
324.872830
 20
306.082248
 30
0.0
 10
322.667969
 20
312.734311
 30
0.0
 10
320.463108
 20
319.386402
 30
0.0
 10
318.258246
 20
326.038464
 30
0.0
 10
316.053385
 20
332.690526
 30
0.0
 10
320.592320
 20
336.484666
 30
0.0
 10
324.054941
 20
340.380715
 30
0.0
 10
326.502166
 20
345.566774
 30
0.0
 10
327.994913
 20
353.231027
 30
0.0
 10
328.041895
 20
353.811784
 30
0.0
 10
328.057276
 20
354.408599
 30
0.0
 10
328.043673
 20
355.018538
 30
0.0
 10
328.003755
 20
355.638721
 30
0.0
 10
330.080727
 20
355.255068
 30
0.0
 10
332.157699
 20
354.871443
 30
0.0
 10
334.234671
 20
354.487790
 30
0.0
 10
336.311644
 20
354.104138
 30
0.0
 10
335.614907
 20
341.053561
 30
0.0
 10
334.918171
 20
328.003013
 30
0.0
 10
334.221435
 20
314.952436
 30
0.0
 10
333.524699
 20
301.901860
 30
0.0
 10
337.341317
 20
301.264659
 30
0.0
 10
341.157935
 20
300.627429
 30
0.0
 10
344.974553
 20
299.990228
 30
0.0
 10
348.791172
 20
299.353026
 30
0.0
 10
349.633427
 20
312.315408
 30
0.0
 10
350.475685
 20
325.277762
 30
0.0
 10
351.317941
 20
338.240144
 30
0.0
 10
352.160199
 20
351.202526
 30
0.0
 10
356.512594
 20
350.397741
 30
0.0
 10
360.864991
 20
349.592985
 30
0.0
 10
365.217385
 20
348.788200
 30
0.0
 10
369.569783
 20
347.983443
 30
0.0
 10
369.572040
 20
347.983443
 30
0.0
 10
369.574298
 20
347.983443
 30
0.0
 10
369.576556
 20
347.983443
 30
0.0
 10
369.578805
 20
347.983443
 30
0.0
  0
LWPOLYLINE
  5
106
100
AcDbEntity
  8
inserts
 62
7
100
AcDbPolyline
 90
17
 70
0
 10
161.845625
 20
393.068443
 30
0.0
 10
156.547700
 20
391.999329
 30
0.0
 10
152.222213
 20
389.083465
 30
0.0
 10
149.306331
 20
384.757958
 30
0.0
 10
148.237222
 20
379.460026
 30
0.0
 10
149.306331
 20
374.160711
 30
0.0
 10
152.222213
 20
369.832213
 30
0.0
 10
156.547700
 20
366.913301
 30
0.0
 10
161.845625
 20
365.842804
 30
0.0
 10
167.144928
 20
366.913301
 30
0.0
 10
171.473447
 20
369.832213
 30
0.0
 10
174.392360
 20
374.160711
 30
0.0
 10
175.462847
 20
379.460026
 30
0.0
 10
174.392360
 20
384.757958
 30
0.0
 10
171.473447
 20
389.083465
 30
0.0
 10
167.144928
 20
391.999329
 30
0.0
 10
161.845625
 20
393.068443
 30
0.0
  0
LWPOLYLINE
  5
107
100
AcDbEntity
  8
inserts
 62
7
100
AcDbPolyline
 90
17
 70
0
 10
561.048978
 20
408.317248
 30
0.0
 10
555.720651
 20
406.543877
 30
0.0
 10
551.369885
 20
401.708281
 30
0.0
 10
548.436721
 20
394.537128
 30
0.0
 10
547.361200
 20
385.757138
 30
0.0
 10
548.436721
 20
376.978531
 30
0.0
 10
551.369885
 20
369.810397
 30
0.0
 10
555.720679
 20
364.977793
 30
0.0
 10
561.048978
 20
363.205804
 30
0.0
 10
566.378660
 20
364.977793
 30
0.0
 10
570.732446
 20
369.810397
 30
0.0
 10
573.668658
 20
376.978531
 30
0.0
 10
574.745561
 20
385.757138
 30
0.0
 10
573.668658
 20
394.537128
 30
0.0
 10
570.732446
 20
401.708281
 30
0.0
 10
566.378660
 20
406.543877
 30
0.0
 10
561.048978
 20
408.317248
 30
0.0
  0
LWPOLYLINE
  5
108
100
AcDbEntity
  8
inserts
 62
7
100
AcDbPolyline
 90
17
 70
0
 10
39.758056
 20
408.317248
 30
0.0
 10
34.429754
 20
406.543877
 30
0.0
 10
30.078976
 20
401.708281
 30
0.0
 10
27.145798
 20
394.537128
 30
0.0
 10
26.070278
 20
385.757138
 30
0.0
 10
27.145798
 20
376.978531
 30
0.0
 10
30.078976
 20
369.810397
 30
0.0
 10
34.429754
 20
364.977793
 30
0.0
 10
39.758056
 20
363.205804
 30
0.0
 10
45.086357
 20
364.977793
 30
0.0
 10
49.437132
 20
369.810397
 30
0.0
 10
52.370313
 20
376.978531
 30
0.0
 10
53.445833
 20
385.757138
 30
0.0
 10
52.370313
 20
394.537128
 30
0.0
 10
49.437132
 20
401.708281
 30
0.0
 10
45.086357
 20
406.543877
 30
0.0
 10
39.758056
 20
408.317248
 30
0.0
  0
LWPOLYLINE
  5
109
100
AcDbEntity
  8
inserts
 62
7
100
AcDbPolyline
 90
17
 70
0
 10
154.851806
 20
423.028082
 30
0.0
 10
149.552503
 20
421.958968
 30
0.0
 10
145.223984
 20
419.043104
 30
0.0
 10
142.305070
 20
414.717625
 30
0.0
 10
141.234583
 20
409.419693
 30
0.0
 10
142.305070
 20
404.121761
 30
0.0
 10
145.223984
 20
399.796282
 30
0.0
 10
149.552503
 20
396.880419
 30
0.0
 10
154.851806
 20
395.811304
 30
0.0
 10
160.149730
 20
396.880419
 30
0.0
 10
164.475218
 20
399.796282
 30
0.0
 10
167.391099
 20
404.121761
 30
0.0
 10
168.460208
 20
409.419693
 30
0.0
 10
167.391099
 20
414.717625
 30
0.0
 10
164.475218
 20
419.043104
 30
0.0
 10
160.149730
 20
421.958968
 30
0.0
 10
154.851806
 20
423.028082
 30
0.0
  0
LWPOLYLINE
  5
10a
100
AcDbEntity
  8
inserts
 62
7
100
AcDbPolyline
 90
37
 70
0
 10
325.287584
 20
428.346221
 30
0.0
 10
309.057596
 20
426.262631
 30
0.0
 10
292.827611
 20
424.179040
 30
0.0
 10
276.597624
 20
422.095450
 30
0.0
 10
260.367639
 20
420.011860
 30
0.0
 10
261.827970
 20
415.869713
 30
0.0
 10
263.295867
 20
411.662598
 30
0.0
 10
264.774703
 20
407.359302
 30
0.0
 10
266.267847
 20
402.928582
 30
0.0
 10
267.244266
 20
399.952916
 30
0.0
 10
268.230243
 20
396.881999
 30
0.0
 10
269.220594
 20
393.769624
 30
0.0
 10
270.210139
 20
390.669554
 30
0.0
 10
284.762222
 20
392.164457
 30
0.0
 10
299.314306
 20
393.659332
 30
0.0
 10
313.866389
 20
395.154235
 30
0.0
 10
328.418472
 20
396.649138
 30
0.0
 10
329.820764
 20
396.713089
 30
0.0
 10
331.223056
 20
396.777012
 30
0.0
 10
332.625347
 20
396.840964
 30
0.0
 10
334.027639
 20
396.904916
 30
0.0
 10
333.862621
 20
397.638355
 30
0.0
 10
333.701870
 20
398.375914
 30
0.0
 10
333.538641
 20
399.112176
 30
0.0
 10
333.366195
 20
399.841776
 30
0.0
 10
332.760963
 20
402.295219
 30
0.0
 10
332.214339
 20
404.491896
 30
0.0
 10
331.615254
 20
406.826325
 30
0.0
 10
330.852639
 20
409.693082
 30
0.0
 10
329.961423
 20
412.947471
 30
0.0
 10
329.049527
 20
416.181540
 30
0.0
 10
328.115351
 20
419.394866
 30
0.0
 10
327.157306
 20
422.587138
 30
0.0
 10
326.701847
 20
424.037675
 30
0.0
 10
326.232224
 20
425.475626
 30
0.0
 10
325.757709
 20
426.909089
 30
0.0
 10
325.287584
 20
428.346221
 30
0.0
  0
LWPOLYLINE
  5
10b
100
AcDbEntity
  8
inserts
 62
7
100
AcDbPolyline
 90
29
 70
0
 10
369.517083
 20
434.025943
 30
0.0
 10
368.852103
 20
433.936676
 30
0.0
 10
368.192682
 20
433.721397
 30
0.0
 10
367.553850
 20
433.371752
 30
0.0
 10
366.950639
 20
432.879415
 30
0.0
 10
361.001917
 20
427.071818
 30
0.0
 10
355.053194
 20
421.264193
 30
0.0
 10
349.104472
 20
415.456596
 30
0.0
 10
343.155750
 20
409.648999
 30
0.0
 10
341.640231
 20
407.482661
 30
0.0
 10
341.510287
 20
405.616692
 30
0.0
 10
342.322144
 20
404.102231
 30
0.0
 10
343.632028
 20
402.990304
 30
0.0
 10
347.197285
 20
400.732526
 30
0.0
 10
350.762542
 20
398.474748
 30
0.0
 10
354.327799
 20
396.216971
 30
0.0
 10
357.893056
 20
393.959193
 30
0.0
 10
359.853930
 20
393.117917
 30
0.0
 10
362.133879
 20
392.921405
 30
0.0
 10
364.194005
 20
393.779587
 30
0.0
 10
365.495417
 20
396.102332
 30
0.0
 10
367.429085
 20
404.410249
 30
0.0
 10
369.362750
 20
412.718165
 30
0.0
 10
371.296415
 20
421.026082
 30
0.0
 10
373.230084
 20
429.333999
 30
0.0
 10
373.242247
 20
431.262141
 30
0.0
 10
372.464663
 20
432.766950
 30
0.0
 10
371.141538
 20
433.728255
 30
0.0
 10
369.517083
 20
434.025943
 30
0.0
  0
LWPOLYLINE
  5
10c
100
AcDbEntity
  8
inserts
 62
7
100
AcDbPolyline
 90
17
 70
0
 10
415.307639
 20
439.202971
 30
0.0
 10
409.943207
 20
430.163055
 30
0.0
 10
404.578778
 20
421.123110
 30
0.0
 10
399.214346
 20
412.083194
 30
0.0
 10
393.849916
 20
403.043249
 30
0.0
 10
399.672957
 20
399.588228
 30
0.0
 10
405.496000
 20
396.133207
 30
0.0
 10
411.319040
 20
392.678186
 30
0.0
 10
417.142083
 20
389.223165
 30
0.0
 10
422.506515
 20
398.263082
 30
0.0
 10
427.870947
 20
407.303026
 30
0.0
 10
433.235388
 20
416.342943
 30
0.0
 10
438.599811
 20
425.382888
 30
0.0
 10
432.776777
 20
428.837908
 30
0.0
 10
426.953725
 20
432.292929
 30
0.0
 10
421.130682
 20
435.747950
 30
0.0
 10
415.307639
 20
439.202971
 30
0.0
  0
LWPOLYLINE
  5
10d
100
AcDbEntity
  8
inserts
 62
7
100
AcDbPolyline
 90
17
 70
0
 10
147.849167
 20
452.996582
 30
0.0
 10
142.551242
 20
451.926085
 30
0.0
 10
138.225755
 20
449.007202
 30
0.0
 10
135.309873
 20
444.678675
 30
0.0
 10
134.240764
 20
439.379360
 30
0.0
 10
135.309873
 20
434.081428
 30
0.0
 10
138.225755
 20
429.755949
 30
0.0
 10
142.551242
 20
426.840057
 30
0.0
 10
147.849167
 20
425.770943
 30
0.0
 10
153.148469
 20
426.840057
 30
0.0
 10
157.476988
 20
429.755949
 30
0.0
 10
160.395902
 20
434.081428
 30
0.0
 10
161.466389
 20
439.379360
 30
0.0
 10
160.395902
 20
444.678675
 30
0.0
 10
157.476988
 20
449.007202
 30
0.0
 10
153.148469
 20
451.926085
 30
0.0
 10
147.849167
 20
452.996582
 30
0.0
  0
LWPOLYLINE
  5
10e
100
AcDbEntity
  8
inserts
 62
7
100
AcDbPolyline
 90
29
 70
0
 10
390.419167
 20
471.490943
 30
0.0
 10
389.755566
 20
471.400293
 30
0.0
 10
389.099179
 20
471.181966
 30
0.0
 10
388.463375
 20
470.829301
 30
0.0
 10
387.861528
 20
470.335582
 30
0.0
 10
381.910613
 20
464.530186
 30
0.0
 10
375.959695
 20
458.724790
 30
0.0
 10
370.008777
 20
452.919394
 30
0.0
 10
364.057861
 20
447.113999
 30
0.0
 10
362.542334
 20
444.947661
 30
0.0
 10
362.412370
 20
443.081692
 30
0.0
 10
363.224211
 20
441.567231
 30
0.0
 10
364.534083
 20
440.455304
 30
0.0
 10
368.099346
 20
438.197526
 30
0.0
 10
371.664611
 20
435.939748
 30
0.0
 10
375.229874
 20
433.681971
 30
0.0
 10
378.795139
 20
431.424193
 30
0.0
 10
380.757393
 20
430.581534
 30
0.0
 10
383.040374
 20
430.382003
 30
0.0
 10
385.103531
 20
431.237164
 30
0.0
 10
386.406305
 20
433.558527
 30
0.0
 10
388.337764
 20
441.868645
 30
0.0
 10
390.269222
 20
450.178763
 30
0.0
 10
392.200680
 20
458.488881
 30
0.0
 10
394.132139
 20
466.798999
 30
0.0
 10
394.144331
 20
468.727141
 30
0.0
 10
393.366752
 20
470.231950
 30
0.0
 10
392.043632
 20
471.193255
 30
0.0
 10
390.419167
 20
471.490943
 30
0.0
  0
LWPOLYLINE
  5
10f
100
AcDbEntity
  8
inserts
 62
7
100
AcDbPolyline
 90
33
 70
0
 10
305.584916
 20
476.659138
 30
0.0
 10
289.302021
 20
475.272269
 30
0.0
 10
273.019125
 20
473.885401
 30
0.0
 10
256.736229
 20
472.498561
 30
0.0
 10
240.453333
 20
471.111693
 30
0.0
 10
241.765415
 20
468.168877
 30
0.0
 10
243.085383
 20
465.162928
 30
0.0
 10
244.418855
 20
462.071014
 30
0.0
 10
245.771458
 20
458.870304
 30
0.0
 10
247.384406
 20
454.975722
 30
0.0
 10
249.016740
 20
450.957894
 30
0.0
 10
250.666851
 20
446.815097
 30
0.0
 10
252.333125
 20
442.545526
 30
0.0
 10
252.427681
 20
442.293079
 30
0.0
 10
252.522632
 20
442.030386
 30
0.0
 10
252.617636
 20
441.767299
 30
0.0
 10
252.712361
 20
441.513637
 30
0.0
 10
269.017304
 20
443.486992
 30
0.0
 10
285.322250
 20
445.460346
 30
0.0
 10
301.627193
 20
447.433700
 30
0.0
 10
317.932139
 20
449.407054
 30
0.0
 10
316.861097
 20
452.110009
 30
0.0
 10
315.770520
 20
454.798515
 30
0.0
 10
314.658324
 20
457.467970
 30
0.0
 10
313.522416
 20
460.113860
 30
0.0
 10
312.239093
 20
463.011407
 30
0.0
 10
310.927583
 20
465.885728
 30
0.0
 10
309.588374
 20
468.736031
 30
0.0
 10
308.221944
 20
471.561499
 30
0.0
 10
307.575983
 20
472.848122
 30
0.0
 10
306.915622
 20
474.120803
 30
0.0
 10
306.249166
 20
475.388263
 30
0.0
 10
305.584916
 20
476.659138
 30
0.0
  0
LWPOLYLINE
  5
110
100
AcDbEntity
  8
inserts
 62
7
100
AcDbPolyline
 90
17
 70
0
 10
140.855347
 20
482.956221
 30
0.0
 10
135.556044
 20
481.887107
 30
0.0
 10
131.227525
 20
478.971243
 30
0.0
 10
128.308612
 20
474.645764
 30
0.0
 10
127.238125
 20
469.347804
 30
0.0
 10
128.308612
 20
464.048517
 30
0.0
 10
131.227525
 20
459.719990
 30
0.0
 10
135.556044
 20
456.801079
 30
0.0
 10
140.855347
 20
455.730582
 30
0.0
 10
146.153272
 20
456.801079
 30
0.0
 10
150.478759
 20
459.719990
 30
0.0
 10
153.394641
 20
464.048517
 30
0.0
 10
154.463750
 20
469.347804
 30
0.0
 10
153.394641
 20
474.645764
 30
0.0
 10
150.478759
 20
478.971243
 30
0.0
 10
146.153272
 20
481.887107
 30
0.0
 10
140.855347
 20
482.956221
 30
0.0
  0
LWPOLYLINE
  5
111
100
AcDbEntity
  8
inserts
 62
7
100
AcDbPolyline
 90
17
 70
0
 10
445.267311
 20
491.405249
 30
0.0
 10
439.902888
 20
482.367534
 30
0.0
 10
434.538436
 20
473.329790
 30
0.0
 10
429.174015
 20
464.292075
 30
0.0
 10
423.809583
 20
455.254360
 30
0.0
 10
429.632626
 20
451.799339
 30
0.0
 10
435.455658
 20
448.344318
 30
0.0
 10
441.278721
 20
444.889297
 30
0.0
 10
447.101756
 20
441.434276
 30
0.0
 10
452.463978
 20
450.472020
 30
0.0
 10
457.826200
 20
459.509735
 30
0.0
 10
463.188423
 20
468.547450
 30
0.0
 10
468.550645
 20
477.585193
 30
0.0
 10
462.729811
 20
481.040214
 30
0.0
 10
456.908978
 20
484.495235
 30
0.0
 10
451.088145
 20
487.950228
 30
0.0
 10
445.267311
 20
491.405249
 30
0.0
  0
LWPOLYLINE
  5
112
100
AcDbEntity
  8
inserts
 62
7
100
AcDbPolyline
 90
29
 70
0
 10
411.330084
 20
508.955943
 30
0.0
 10
410.665092
 20
508.865302
 30
0.0
 10
410.005668
 20
508.646975
 30
0.0
 10
409.366836
 20
508.294287
 30
0.0
 10
408.763611
 20
507.800582
 30
0.0
 10
402.812687
 20
501.992985
 30
0.0
 10
396.861764
 20
496.185388
 30
0.0
 10
390.910840
 20
490.377790
 30
0.0
 10
384.959916
 20
484.570193
 30
0.0
 10
383.444406
 20
482.403856
 30
0.0
 10
383.314456
 20
480.537887
 30
0.0
 10
384.126305
 20
479.023426
 30
0.0
 10
385.436195
 20
477.911499
 30
0.0
 10
389.003653
 20
475.653721
 30
0.0
 10
392.571111
 20
473.395943
 30
0.0
 10
396.138569
 20
471.138165
 30
0.0
 10
399.706028
 20
468.880388
 30
0.0
 10
401.666902
 20
468.039083
 30
0.0
 10
403.946854
 20
467.842600
 30
0.0
 10
406.006989
 20
468.700781
 30
0.0
 10
407.308417
 20
471.023527
 30
0.0
 10
409.242077
 20
479.333645
 30
0.0
 10
411.175736
 20
487.643763
 30
0.0
 10
413.109396
 20
495.953881
 30
0.0
 10
415.043056
 20
504.263999
 30
0.0
 10
415.055219
 20
506.192138
 30
0.0
 10
414.277643
 20
507.696944
 30
0.0
 10
412.954526
 20
508.658264
 30
0.0
 10
411.330084
 20
508.955943
 30
0.0
  0
LWPOLYLINE
  5
113
100
AcDbEntity
  8
inserts
 62
7
100
AcDbPolyline
 90
41
 70
0
 10
296.527361
 20
511.037332
 30
0.0
 10
296.391305
 20
511.037050
 30
0.0
 10
296.253831
 20
511.035921
 30
0.0
 10
296.116420
 20
511.033381
 30
0.0
 10
295.980556
 20
511.028781
 30
0.0
 10
294.908385
 20
510.938546
 30
0.0
 10
293.851288
 20
510.765947
 30
0.0
 10
292.818129
 20
510.519708
 30
0.0
 10
291.817778
 20
510.208558
 30
0.0
 10
289.541867
 20
509.266594
 30
0.0
 10
287.360905
 20
507.991776
 30
0.0
 10
285.448259
 20
506.350295
 30
0.0
 10
283.977306
 20
504.308336
 30
0.0
 10
283.204996
 20
502.297438
 30
0.0
 10
282.889096
 20
500.140244
 30
0.0
 10
283.022489
 20
497.963667
 30
0.0
 10
283.598056
 20
495.894614
 30
0.0
 10
284.609419
 20
494.055197
 30
0.0
 10
286.003754
 20
492.467155
 30
0.0
 10
287.676906
 20
491.175116
 30
0.0
 10
289.524722
 20
490.223697
 30
0.0
 10
291.690769
 20
489.593749
 30
0.0
 10
293.961510
 20
489.378583
 30
0.0
 10
296.234158
 20
489.574925
 30
0.0
 10
298.405917
 20
490.179614
 30
0.0
 10
300.678923
 20
491.317432
 30
0.0
 10
302.737751
 20
492.872522
 30
0.0
 10
304.473929
 20
494.778896
 30
0.0
 10
305.778972
 20
496.970558
 30
0.0
 10
306.456088
 20
498.968401
 30
0.0
 10
306.738539
 20
501.093636
 30
0.0
 10
306.594121
 20
503.232112
 30
0.0
 10
305.990639
 20
505.269669
 30
0.0
 10
304.983566
 20
506.979558
 30
0.0
 10
303.616233
 20
508.429508
 30
0.0
 10
301.994116
 20
509.587178
 30
0.0
 10
300.222694
 20
510.420225
 30
0.0
 10
299.323910
 20
510.698327
 30
0.0
 10
298.403984
 20
510.890376
 30
0.0
 10
297.469580
 20
511.001690
 30
0.0
 10
296.527361
 20
511.037332
 30
0.0
  0
LWPOLYLINE
  5
114
100
AcDbEntity
  8
inserts
 62
7
100
AcDbPolyline
 90
17
 70
0
 10
133.852708
 20
512.915860
 30
0.0
 10
128.554783
 20
511.846751
 30
0.0
 10
124.229296
 20
508.930876
 30
0.0
 10
121.313414
 20
504.605392
 30
0.0
 10
120.244306
 20
499.307471
 30
0.0
 10
121.313414
 20
494.009550
 30
0.0
 10
124.229296
 20
489.684060
 30
0.0
 10
128.554783
 20
486.768196
 30
0.0
 10
133.852708
 20
485.699082
 30
0.0
 10
139.152011
 20
486.768196
 30
0.0
 10
143.480530
 20
489.684060
 30
0.0
 10
146.399444
 20
494.009550
 30
0.0
 10
147.469931
 20
499.307471
 30
0.0
 10
146.399444
 20
504.605392
 30
0.0
 10
143.480530
 20
508.930876
 30
0.0
 10
139.152011
 20
511.846751
 30
0.0
 10
133.852708
 20
512.915860
 30
0.0
  0
LWPOLYLINE
  5
115
100
AcDbEntity
  8
inserts
 62
7
100
AcDbPolyline
 90
17
 70
0
 10
475.218145
 20
543.616360
 30
0.0
 10
469.855923
 20
534.576429
 30
0.0
 10
464.493700
 20
525.536499
 30
0.0
 10
459.131478
 20
516.496568
 30
0.0
 10
453.769256
 20
507.456638
 30
0.0
 10
459.592291
 20
504.001625
 30
0.0
 10
465.415325
 20
500.546610
 30
0.0
 10
471.238360
 20
497.091597
 30
0.0
 10
477.061395
 20
493.636582
 30
0.0
 10
482.423617
 20
502.676513
 30
0.0
 10
487.785839
 20
511.716443
 30
0.0
 10
493.148061
 20
520.756374
 30
0.0
 10
498.510283
 20
529.796304
 30
0.0
 10
492.687249
 20
533.251320
 30
0.0
 10
486.864214
 20
536.706332
 30
0.0
 10
481.041179
 20
540.161347
 30
0.0
 10
475.218145
 20
543.616360
 30
0.0
  0
LWPOLYLINE
  5
116
100
AcDbEntity
  8
inserts
 62
7
100
AcDbPolyline
 90
29
 70
0
 10
427.002222
 20
556.598582
 30
0.0
 10
420.416132
 20
555.084973
 30
0.0
 10
414.512887
 20
550.644314
 30
0.0
 10
410.374033
 20
543.505477
 30
0.0
 10
409.081111
 20
533.897332
 30
0.0
 10
409.946594
 20
528.540283
 30
0.0
 10
412.425713
 20
523.331750
 30
0.0
 10
417.082218
 20
518.330417
 30
0.0
 10
424.479861
 20
513.594971
 30
0.0
 10
424.347569
 20
512.333790
 30
0.0
 10
424.215278
 20
511.072610
 30
0.0
 10
424.082986
 20
509.811429
 30
0.0
 10
423.950694
 20
508.550249
 30
0.0
 10
425.710175
 20
508.649472
 30
0.0
 10
427.469656
 20
508.748693
 30
0.0
 10
429.229136
 20
508.847917
 30
0.0
 10
430.988617
 20
508.947138
 30
0.0
 10
430.688756
 20
510.142165
 30
0.0
 10
430.388892
 20
511.337193
 30
0.0
 10
430.089028
 20
512.532221
 30
0.0
 10
429.789167
 20
513.727248
 30
0.0
 10
435.070199
 20
516.305775
 30
0.0
 10
439.661390
 20
519.982323
 30
0.0
 10
442.967708
 20
525.408485
 30
0.0
 10
444.394172
 20
533.235860
 30
0.0
 10
443.217560
 20
542.721656
 30
0.0
 10
439.483506
 20
550.094503
 30
0.0
 10
433.856813
 20
554.878708
 30
0.0
 10
427.002222
 20
556.598582
 30
0.0
  0
LWPOLYLINE
  5
117
100
AcDbEntity
  8
inserts
 62
7
100
AcDbPolyline
 90
29
 70
0
 10
305.011667
 20
564.403804
 30
0.0
 10
304.867567
 20
564.399007
 30
0.0
 10
304.722276
 20
564.390399
 30
0.0
 10
304.576161
 20
564.377473
 30
0.0
 10
304.429583
 20
564.359721
 30
0.0
 10
302.686175
 20
563.936013
 30
0.0
 10
301.294789
 20
563.162918
 30
0.0
 10
300.253716
 20
561.989422
 30
0.0
 10
299.561250
 20
560.364499
 30
0.0
 10
299.302938
 20
558.847275
 30
0.0
 10
299.247501
 20
557.041352
 30
0.0
 10
299.415081
 20
555.252184
 30
0.0
 10
299.825833
 20
553.785222
 30
0.0
 10
300.607713
 20
552.402008
 30
0.0
 10
301.663269
 20
551.154459
 30
0.0
 10
302.940017
 20
550.190416
 30
0.0
 10
304.385472
 20
549.657722
 30
0.0
 10
305.957173
 20
549.789316
 30
0.0
 10
307.489174
 20
550.561916
 30
0.0
 10
308.873827
 20
551.715847
 30
0.0
 10
310.003472
 20
552.991443
 30
0.0
 10
310.951138
 20
554.462572
 30
0.0
 10
311.498539
 20
555.966226
 30
0.0
 10
311.604880
 20
557.539130
 30
0.0
 10
311.229361
 20
559.217999
 30
0.0
 10
310.236616
 20
561.212032
 30
0.0
 10
308.818602
 20
562.878424
 30
0.0
 10
307.051541
 20
564.011064
 30
0.0
 10
305.011667
 20
564.403804
 30
0.0
  0
LWPOLYLINE
  5
118
100
AcDbEntity
  8
inserts
 62
7
100
AcDbPolyline
 90
29
 70
0
 10
288.448750
 20
565.876638
 30
0.0
 10
287.378490
 20
565.791045
 30
0.0
 10
286.335874
 20
565.546432
 30
0.0
 10
285.333248
 20
565.140602
 30
0.0
 10
284.382972
 20
564.571360
 30
0.0
 10
282.732570
 20
563.199537
 30
0.0
 10
281.410921
 20
561.609147
 30
0.0
 10
280.499329
 20
559.788895
 30
0.0
 10
280.079097
 20
557.727471
 30
0.0
 10
280.183703
 20
556.249747
 30
0.0
 10
280.646158
 20
554.782668
 30
0.0
 10
281.396144
 20
553.427590
 30
0.0
 10
282.363333
 20
552.285860
 30
0.0
 10
283.911387
 20
551.000272
 30
0.0
 10
285.693711
 20
549.946534
 30
0.0
 10
287.587964
 20
549.361320
 30
0.0
 10
289.471806
 20
549.481304
 30
0.0
 10
292.250614
 20
550.891908
 30
0.0
 10
294.241880
 20
553.092513
 30
0.0
 10
295.404740
 20
555.879787
 30
0.0
 10
295.698333
 20
559.050388
 30
0.0
 10
295.283647
 20
561.084332
 30
0.0
 10
294.301604
 20
562.953975
 30
0.0
 10
292.855960
 20
564.472554
 30
0.0
 10
291.050472
 20
565.453304
 30
0.0
 10
290.404440
 20
565.640426
 30
0.0
 10
289.752701
 20
565.773866
 30
0.0
 10
289.099419
 20
565.852860
 30
0.0
 10
288.448750
 20
565.876638
 30
0.0
  0
LWPOLYLINE
  5
119
100
AcDbEntity
  8
inserts
 62
7
100
AcDbPolyline
 90
29
 70
0
 10
383.099028
 20
591.876360
 30
0.0
 10
375.606482
 20
590.249501
 30
0.0
 10
370.230736
 20
585.810766
 30
0.0
 10
367.099898
 20
578.595022
 30
0.0
 10
366.342083
 20
568.637138
 30
0.0
 10
367.777954
 20
561.250290
 30
0.0
 10
371.443086
 20
553.841449
 30
0.0
 10
377.238635
 20
547.458395
 30
0.0
 10
385.065750
 20
543.148915
 30
0.0
 10
384.679901
 20
541.989165
 30
0.0
 10
384.294055
 20
540.829415
 30
0.0
 10
383.908207
 20
539.669665
 30
0.0
 10
383.522361
 20
538.509916
 30
0.0
 10
385.387672
 20
538.648820
 30
0.0
 10
387.252986
 20
538.787721
 30
0.0
 10
389.118297
 20
538.926625
 30
0.0
 10
390.983611
 20
539.065526
 30
0.0
 10
390.489722
 20
540.227483
 30
0.0
 10
389.995833
 20
541.389443
 30
0.0
 10
389.501944
 20
542.551403
 30
0.0
 10
389.008056
 20
543.713360
 30
0.0
 10
396.108324
 20
547.861309
 30
0.0
 10
400.635391
 20
553.587158
 30
0.0
 10
402.975786
 20
560.501219
 30
0.0
 10
403.516028
 20
568.213804
 30
0.0
 10
401.483946
 20
578.605359
 30
0.0
 10
396.738450
 20
586.053768
 30
0.0
 10
390.277491
 20
590.497834
 30
0.0
 10
383.099028
 20
591.876360
 30
0.0
  0
LWPOLYLINE
  5
11a
100
AcDbEntity
  8
inserts
 62
7
100
AcDbPolyline
 90
17
 70
0
 10
298.935084
 20
593.119916
 30
0.0
 10
295.221776
 20
592.371005
 30
0.0
 10
292.188403
 20
590.328334
 30
0.0
 10
290.142704
 20
587.297998
 30
0.0
 10
289.392416
 20
583.586082
 30
0.0
 10
290.142704
 20
579.872791
 30
0.0
 10
292.188403
 20
576.839427
 30
0.0
 10
295.221776
 20
574.793728
 30
0.0
 10
298.935084
 20
574.043443
 30
0.0
 10
302.646983
 20
574.793728
 30
0.0
 10
305.677313
 20
576.839427
 30
0.0
 10
307.719978
 20
579.872791
 30
0.0
 10
308.468889
 20
583.586082
 30
0.0
 10
307.719978
 20
587.297998
 30
0.0
 10
305.677313
 20
590.328334
 30
0.0
 10
302.646983
 20
592.371005
 30
0.0
 10
298.935084
 20
593.119916
 30
0.0
  0
LWPOLYLINE
  5
11b
100
AcDbEntity
  8
inserts
 62
7
100
AcDbPolyline
 90
41
 70
0
 10
122.308056
 20
600.810471
 30
0.0
 10
120.694403
 20
600.642825
 30
0.0
 10
119.134100
 20
600.206626
 30
0.0
 10
117.674698
 20
599.503486
 30
0.0
 10
116.363750
 20
598.535026
 30
0.0
 10
113.669242
 20
594.596406
 30
0.0
 10
112.989264
 20
590.039017
 30
0.0
 10
114.677833
 20
586.058541
 30
0.0
 10
119.088958
 20
583.850665
 30
0.0
 10
116.801838
 20
579.235378
 30
0.0
 10
117.871350
 20
574.858123
 30
0.0
 10
121.333399
 20
571.429521
 30
0.0
 10
126.223889
 20
569.660193
 30
0.0
 10
125.763073
 20
569.192763
 30
0.0
 10
125.302257
 20
568.725332
 30
0.0
 10
124.841441
 20
568.257902
 30
0.0
 10
124.380625
 20
567.790471
 30
0.0
 10
137.927292
 20
560.712860
 30
0.0
 10
151.473958
 20
553.635249
 30
0.0
 10
165.020625
 20
546.557637
 30
0.0
 10
178.567292
 20
539.480026
 30
0.0
 10
180.722651
 20
538.921904
 30
0.0
 10
181.935905
 20
539.667890
 30
0.0
 10
182.102057
 20
541.309933
 30
0.0
 10
181.116111
 20
543.439971
 30
0.0
 10
172.100434
 20
556.073826
 30
0.0
 10
163.084757
 20
568.707679
 30
0.0
 10
154.069080
 20
581.341535
 30
0.0
 10
145.053403
 20
593.975388
 30
0.0
 10
144.464705
 20
593.113283
 30
0.0
 10
143.876007
 20
592.251179
 30
0.0
 10
143.287309
 20
591.389075
 30
0.0
 10
142.698611
 20
590.526971
 30
0.0
 10
141.367676
 20
594.721112
 30
0.0
 10
137.801362
 20
596.916832
 30
0.0
 10
133.731364
 20
597.017850
 30
0.0
 10
130.889375
 20
594.927888
 30
0.0
 10
129.497362
 20
597.555179
 30
0.0
 10
127.455707
 20
599.405764
 30
0.0
 10
124.985556
 20
600.488055
 30
0.0
 10
122.308056
 20
600.810471
 30
0.0
  0
LWPOLYLINE
  5
11c
100
AcDbEntity
  8
inserts
 62
7
100
AcDbPolyline
 90
81
 70
0
 10
66.480972
 20
620.010388
 30
0.0
 10
65.944386
 20
619.862249
 30
0.0
 10
65.534777
 20
619.509714
 30
0.0
 10
65.346910
 20
618.951109
 30
0.0
 10
65.475556
 20
618.184748
 30
0.0
 10
64.838095
 20
618.645677
 30
0.0
 10
64.297139
 20
618.547666
 30
0.0
 10
63.926469
 20
618.069765
 30
0.0
 10
63.799861
 20
617.391027
 30
0.0
 10
62.896329
 20
618.346208
 30
0.0
 10
61.852031
 20
618.632813
 30
0.0
 10
60.860011
 20
618.327183
 30
0.0
 10
60.113333
 20
617.505665
 30
0.0
 10
59.269630
 20
618.576922
 30
0.0
 10
57.889775
 20
619.055839
 30
0.0
 10
56.547930
 20
618.640605
 30
0.0
 10
55.818264
 20
617.029415
 30
0.0
 10
54.936088
 20
617.951974
 30
0.0
 10
53.899616
 20
617.778490
 30
0.0
 10
53.006670
 20
616.853441
 30
0.0
 10
52.555069
 20
615.521304
 30
0.0
 10
51.343724
 20
616.557972
 30
0.0
 10
50.021510
 20
616.804826
 30
0.0
 10
49.154687
 20
616.105643
 30
0.0
 10
49.309514
 20
614.304193
 30
0.0
 10
48.198758
 20
614.854777
 30
0.0
 10
47.367433
 20
614.914019
 30
0.0
 10
46.825845
 20
614.606611
 30
0.0
 10
46.584306
 20
614.057248
 30
0.0
 10
45.779823
 20
614.401574
 30
0.0
 10
44.922194
 20
614.225411
 30
0.0
 10
44.212118
 20
613.449237
 30
0.0
 10
43.850278
 20
611.993527
 30
0.0
 10
42.419202
 20
612.014016
 30
0.0
 10
41.955489
 20
610.499727
 30
0.0
 10
42.492086
 20
608.656376
 30
0.0
 10
44.061944
 20
607.689649
 30
0.0
 10
43.251097
 20
606.848381
 30
0.0
 10
43.206108
 20
605.966776
 30
0.0
 10
43.794090
 20
605.241050
 30
0.0
 10
44.882153
 20
604.867427
 30
0.0
 10
44.627159
 20
604.128654
 30
0.0
 10
44.622362
 20
603.259438
 30
0.0
 10
44.868727
 20
602.402667
 30
0.0
 10
45.367219
 20
601.701232
 30
0.0
 10
44.201766
 20
601.907523
 30
0.0
 10
43.691627
 20
601.248133
 30
0.0
 10
43.745881
 20
600.264078
 30
0.0
 10
44.273608
 20
599.496371
 30
0.0
 10
43.106157
 20
598.791721
 30
0.0
 10
43.177059
 20
597.490248
 30
0.0
 10
44.190906
 20
596.252565
 30
0.0
 10
45.852289
 20
595.739288
 30
0.0
 10
45.717418
 20
594.747556
 30
0.0
 10
46.310220
 20
594.002461
 30
0.0
 10
47.324493
 20
593.587792
 30
0.0
 10
48.454025
 20
593.587228
 30
0.0
 10
47.683739
 20
592.987184
 30
0.0
 10
46.986190
 20
592.460359
 30
0.0
 10
46.328025
 20
591.987643
 30
0.0
 10
45.675900
 20
591.549922
 30
0.0
 10
53.105623
 20
584.865740
 30
0.0
 10
60.677323
 20
578.414930
 30
0.0
 10
68.458712
 20
572.278629
 30
0.0
 10
76.517497
 20
566.537977
 30
0.0
 10
81.520484
 20
569.719240
 30
0.0
 10
86.165275
 20
573.468269
 30
0.0
 10
90.285655
 20
577.846582
 30
0.0
 10
93.715414
 20
582.915700
 30
0.0
 10
88.010554
 20
591.795148
 30
0.0
 10
81.645057
 20
601.058299
 30
0.0
 10
74.964739
 20
610.329770
 30
0.0
 10
68.315414
 20
619.234172
 30
0.0
 10
68.168737
 20
619.092815
 30
0.0
 10
68.081285
 20
618.971832
 30
0.0
 10
68.031524
 20
618.825469
 30
0.0
 10
67.997914
 20
618.607977
 30
0.0
 10
67.904546
 20
619.253137
 30
0.0
 10
67.556631
 20
619.703350
 30
0.0
 10
67.050118
 20
619.956452
 30
0.0
 10
66.480972
 20
620.010388
 30
0.0
  0
LWPOLYLINE
  5
11d
100
AcDbEntity
  8
inserts
 62
7
100
AcDbPolyline
 90
17
 70
0
 10
287.487416
 20
627.013026
 30
0.0
 10
283.775508
 20
626.262741
 30
0.0
 10
280.745181
 20
624.217045
 30
0.0
 10
278.702519
 20
621.183678
 30
0.0
 10
277.953611
 20
617.470388
 30
0.0
 10
278.702519
 20
613.758477
 30
0.0
 10
280.745181
 20
610.728147
 30
0.0
 10
283.775508
 20
608.685487
 30
0.0
 10
287.487416
 20
607.936582
 30
0.0
 10
291.199333
 20
608.685487
 30
0.0
 10
294.229669
 20
610.728147
 30
0.0
 10
296.272339
 20
613.758477
 30
0.0
 10
297.021250
 20
617.470388
 30
0.0
 10
296.272339
 20
621.183678
 30
0.0
 10
294.229669
 20
624.217045
 30
0.0
 10
291.199333
 20
626.262741
 30
0.0
 10
287.487416
 20
627.013026
 30
0.0
  0
LWPOLYLINE
  5
11e
100
AcDbEntity
  8
inserts
 62
7
100
AcDbPolyline
 90
33
 70
0
 10
453.398811
 20
629.888165
 30
0.0
 10
448.363487
 20
629.217636
 30
0.0
 10
443.275161
 20
627.201573
 30
0.0
 10
438.450883
 20
623.889591
 30
0.0
 10
434.207700
 20
619.331304
 30
0.0
 10
429.945902
 20
611.233327
 30
0.0
 10
428.422204
 20
601.837695
 30
0.0
 10
430.706282
 20
592.248151
 30
0.0
 10
437.867783
 20
583.568443
 30
0.0
 10
436.988040
 20
582.721776
 30
0.0
 10
436.108297
 20
581.875110
 30
0.0
 10
435.228554
 20
581.028443
 30
0.0
 10
434.348811
 20
580.181776
 30
0.0
 10
436.249408
 20
579.337311
 30
0.0
 10
438.150006
 20
578.492846
 30
0.0
 10
440.050603
 20
577.648380
 30
0.0
 10
441.951200
 20
576.803915
 30
0.0
 10
441.951200
 20
578.212825
 30
0.0
 10
441.951200
 20
579.621735
 30
0.0
 10
441.951200
 20
581.030644
 30
0.0
 10
441.951200
 20
582.439554
 30
0.0
 10
449.459525
 20
582.935853
 30
0.0
 10
456.105096
 20
585.855727
 30
0.0
 10
461.939928
 20
591.115638
 30
0.0
 10
467.016033
 20
598.632054
 30
0.0
 10
468.992294
 20
605.483236
 30
0.0
 10
468.756977
 20
613.713657
 30
0.0
 10
466.244494
 20
621.619785
 30
0.0
 10
461.389256
 20
627.498082
 30
0.0
 10
459.609647
 20
628.544054
 30
0.0
 10
457.664854
 20
629.288076
 30
0.0
 10
455.584650
 20
629.734622
 30
0.0
 10
453.398811
 20
629.888165
 30
0.0
  0
LWPOLYLINE
  5
11f
100
AcDbEntity
  8
inserts
 62
7
100
AcDbPolyline
 90
57
 70
0
 10
72.822153
 20
646.636304
 30
0.0
 10
70.249079
 20
644.065429
 30
0.0
 10
67.676006
 20
641.494554
 30
0.0
 10
65.102935
 20
638.923679
 30
0.0
 10
62.529861
 20
636.352804
 30
0.0
 10
63.870417
 20
634.908625
 30
0.0
 10
65.210972
 20
633.464443
 30
0.0
 10
66.551528
 20
632.020261
 30
0.0
 10
67.892083
 20
630.576082
 30
0.0
 10
68.363922
 20
630.679706
 30
0.0
 10
68.835764
 20
630.783332
 30
0.0
 10
69.307603
 20
630.886958
 30
0.0
 10
69.779444
 20
630.990582
 30
0.0
 10
69.351116
 20
628.391146
 30
0.0
 10
69.505356
 20
625.592816
 30
0.0
 10
70.374312
 20
622.816676
 30
0.0
 10
72.090139
 20
620.283804
 30
0.0
 10
74.430232
 20
618.531789
 30
0.0
 10
76.991532
 20
617.361348
 30
0.0
 10
79.635517
 20
615.888247
 30
0.0
 10
82.223681
 20
613.228249
 30
0.0
 10
85.237726
 20
608.977277
 30
0.0
 10
88.251769
 20
604.726304
 30
0.0
 10
91.265815
 20
600.475332
 30
0.0
 10
94.279861
 20
596.224360
 30
0.0
 10
97.005112
 20
593.330679
 30
0.0
 10
99.842334
 20
592.236125
 30
0.0
 10
102.784484
 20
592.820390
 30
0.0
 10
105.824514
 20
594.963165
 30
0.0
 10
107.535486
 20
596.669729
 30
0.0
 10
109.246458
 20
598.376290
 30
0.0
 10
110.957431
 20
600.082854
 30
0.0
 10
112.668403
 20
601.789415
 30
0.0
 10
114.730829
 20
604.660262
 30
0.0
 10
114.964371
 20
607.451386
 30
0.0
 10
114.049926
 20
610.141141
 30
0.0
 10
112.668403
 20
612.707888
 30
0.0
 10
108.466740
 20
616.762306
 30
0.0
 10
103.920891
 20
619.944729
 30
0.0
 10
99.376557
 20
622.976972
 30
0.0
 10
95.179444
 20
626.580860
 30
0.0
 10
93.737227
 20
628.619303
 30
0.0
 10
92.611905
 20
630.989473
 30
0.0
 10
91.354834
 20
633.622578
 30
0.0
 10
89.517361
 20
636.449832
 30
0.0
 10
87.147919
 20
638.574550
 30
0.0
 10
84.488020
 20
639.536962
 30
0.0
 10
81.560255
 20
639.692232
 30
0.0
 10
78.387222
 20
639.395526
 30
0.0
 10
78.440139
 20
639.761535
 30
0.0
 10
78.493056
 20
640.127540
 30
0.0
 10
78.545972
 20
640.493549
 30
0.0
 10
78.598889
 20
640.859554
 30
0.0
 10
77.154704
 20
642.303742
 30
0.0
 10
75.710519
 20
643.747929
 30
0.0
 10
74.266338
 20
645.192117
 30
0.0
 10
72.822153
 20
646.636304
 30
0.0
  0
LWPOLYLINE
  5
120
100
AcDbEntity
  8
inserts
 62
7
100
AcDbPolyline
 90
17
 70
0
 10
276.604236
 20
660.844415
 30
0.0
 10
272.890942
 20
660.094130
 30
0.0
 10
269.857578
 20
658.048434
 30
0.0
 10
267.811882
 20
655.015067
 30
0.0
 10
267.061597
 20
651.301776
 30
0.0
 10
267.811882
 20
647.589866
 30
0.0
 10
269.857578
 20
644.559536
 30
0.0
 10
272.890942
 20
642.516876
 30
0.0
 10
276.604236
 20
641.767971
 30
0.0
 10
280.316147
 20
642.516876
 30
0.0
 10
283.346483
 20
644.559536
 30
0.0
 10
285.389148
 20
647.589866
 30
0.0
 10
286.138056
 20
651.301776
 30
0.0
 10
285.389148
 20
655.015067
 30
0.0
 10
283.346483
 20
658.048434
 30
0.0
 10
280.316147
 20
660.094130
 30
0.0
 10
276.604236
 20
660.844415
 30
0.0
  0
LWPOLYLINE
  5
121
100
AcDbEntity
  8
inserts
 62
7
100
AcDbPolyline
 90
29
 70
0
 10
200.333681
 20
687.196915
 30
0.0
 10
199.922559
 20
687.049688
 30
0.0
 10
199.569411
 20
686.638872
 30
0.0
 10
199.261055
 20
685.958061
 30
0.0
 10
198.984306
 20
685.000860
 30
0.0
 10
196.878662
 20
676.289458
 30
0.0
 10
194.773019
 20
667.578054
 30
0.0
 10
192.667379
 20
658.866650
 30
0.0
 10
190.561736
 20
650.155249
 30
0.0
 10
190.374451
 20
648.258379
 30
0.0
 10
190.911819
 20
647.047341
 30
0.0
 10
192.125219
 20
646.561228
 30
0.0
 10
193.966042
 20
646.839138
 30
0.0
 10
201.711718
 20
649.277715
 30
0.0
 10
209.457394
 20
651.716290
 30
0.0
 10
217.203074
 20
654.154868
 30
0.0
 10
224.948750
 20
656.593443
 30
0.0
 10
226.708530
 20
657.516338
 30
0.0
 10
227.412378
 20
658.780129
 30
0.0
 10
227.107101
 20
660.302154
 30
0.0
 10
225.839514
 20
661.999748
 30
0.0
 10
219.912847
 20
668.012408
 30
0.0
 10
213.986181
 20
674.025068
 30
0.0
 10
208.059514
 20
680.037728
 30
0.0
 10
202.132847
 20
686.050388
 30
0.0
 10
201.595194
 20
686.558029
 30
0.0
 10
201.120474
 20
686.920208
 30
0.0
 10
200.702150
 20
687.134107
 30
0.0
 10
200.333681
 20
687.196915
 30
0.0
  0
LWPOLYLINE
  5
122
100
AcDbEntity
  8
inserts
 62
7
100
AcDbPolyline
 90
17
 70
0
 10
339.575084
 20
742.159693
 30
0.0
 10
331.350188
 20
740.601482
 30
0.0
 10
323.075512
 20
736.514117
 30
0.0
 10
316.508796
 20
730.670040
 30
0.0
 10
313.407778
 20
723.841693
 30
0.0
 10
314.368781
 20
719.906386
 30
0.0
 10
317.468369
 20
715.539463
 30
0.0
 10
321.935348
 20
712.003142
 30
0.0
 10
326.998528
 20
710.559638
 30
0.0
 10
334.519377
 20
712.169603
 30
0.0
 10
342.726972
 20
716.198141
 30
0.0
 10
349.409326
 20
721.532720
 30
0.0
 10
352.354444
 20
727.060804
 30
0.0
 10
351.370451
 20
732.330026
 30
0.0
 10
348.336732
 20
737.203922
 30
0.0
 10
344.117030
 20
740.780981
 30
0.0
 10
339.575084
 20
742.159693
 30
0.0
  0
LWPOLYLINE
  5
123
100
AcDbEntity
  8
inserts
 62
7
100
AcDbPolyline
 90
29
 70
0
 10
177.994028
 20
758.634415
 30
0.0
 10
177.582906
 20
758.488567
 30
0.0
 10
177.229759
 20
758.080787
 30
0.0
 10
176.921403
 20
757.403015
 30
0.0
 10
176.644653
 20
756.447193
 30
0.0
 10
174.539010
 20
747.733582
 30
0.0
 10
172.433368
 20
739.019971
 30
0.0
 10
170.327726
 20
730.306360
 30
0.0
 10
168.222083
 20
721.592749
 30
0.0
 10
168.034799
 20
719.695879
 30
0.0
 10
168.572166
 20
718.484841
 30
0.0
 10
169.785567
 20
717.998728
 30
0.0
 10
171.626389
 20
718.276638
 30
0.0
 10
179.372065
 20
720.715215
 30
0.0
 10
187.117742
 20
723.153790
 30
0.0
 10
194.863421
 20
725.592368
 30
0.0
 10
202.609097
 20
728.030943
 30
0.0
 10
204.368877
 20
728.953844
 30
0.0
 10
205.072725
 20
730.217640
 30
0.0
 10
204.767448
 20
731.739665
 30
0.0
 10
203.499861
 20
733.437248
 30
0.0
 10
197.573194
 20
739.449908
 30
0.0
 10
191.646528
 20
745.462568
 30
0.0
 10
185.719861
 20
751.475228
 30
0.0
 10
179.793194
 20
757.487888
 30
0.0
 10
179.255541
 20
757.995530
 30
0.0
 10
178.780821
 20
758.357707
 30
0.0
 10
178.362497
 20
758.571606
 30
0.0
 10
177.994028
 20
758.634415
 30
0.0
  0
LWPOLYLINE
  5
124
100
AcDbEntity
  8
inserts
 62
7
100
AcDbPolyline
 90
25
 70
0
 10
203.526319
 20
768.097693
 30
0.0
 10
202.225868
 20
767.997183
 30
0.0
 10
200.968539
 20
767.655518
 30
0.0
 10
199.773018
 20
767.045455
 30
0.0
 10
198.657986
 20
766.139748
 30
0.0
 10
197.035019
 20
763.306868
 30
0.0
 10
196.545968
 20
759.571731
 30
0.0
 10
197.037957
 20
755.394394
 30
0.0
 10
198.358125
 20
751.234916
 30
0.0
 10
201.013401
 20
745.814167
 30
0.0
 10
203.902220
 20
741.579249
 30
0.0
 10
207.189581
 20
738.095371
 30
0.0
 10
211.040486
 20
734.927749
 30
0.0
 10
215.369719
 20
736.059079
 30
0.0
 10
219.194705
 20
738.181017
 30
0.0
 10
222.241054
 20
741.194270
 30
0.0
 10
224.234375
 20
744.999554
 30
0.0
 10
222.080351
 20
749.893350
 30
0.0
 10
219.755026
 20
754.757144
 30
0.0
 10
216.849356
 20
759.423067
 30
0.0
 10
212.954306
 20
763.723249
 30
0.0
 10
210.903335
 20
765.343960
 30
0.0
 10
208.563986
 20
766.736535
 30
0.0
 10
206.062803
 20
767.716078
 30
0.0
 10
203.526319
 20
768.097693
 30
0.0
  0
LWPOLYLINE
  5
125
100
AcDbEntity
  8
inserts
 62
7
100
AcDbPolyline
 90
17
 70
0
 10
428.854306
 20
768.503360
 30
0.0
 10
421.183858
 20
767.050167
 30
0.0
 10
413.466963
 20
763.238292
 30
0.0
 10
407.342896
 20
757.788139
 30
0.0
 10
404.450917
 20
751.420110
 30
0.0
 10
405.346978
 20
747.749377
 30
0.0
 10
408.237258
 20
743.675246
 30
0.0
 10
412.402748
 20
740.375721
 30
0.0
 10
417.124444
 20
739.028804
 30
0.0
 10
424.138017
 20
740.530421
 30
0.0
 10
431.791737
 20
744.287784
 30
0.0
 10
438.023034
 20
749.263134
 30
0.0
 10
440.769367
 20
754.418721
 30
0.0
 10
439.852144
 20
759.333284
 30
0.0
 10
437.023911
 20
763.879858
 30
0.0
 10
433.089620
 20
767.217024
 30
0.0
 10
428.854306
 20
768.503360
 30
0.0
  0
LWPOLYLINE
  5
126
100
AcDbEntity
  8
inserts
 62
7
100
AcDbPolyline
 90
29
 70
0
 10
335.950278
 20
780.630110
 30
0.0
 10
335.240401
 20
780.594332
 30
0.0
 10
334.481085
 20
780.508712
 30
0.0
 10
333.673636
 20
780.371339
 30
0.0
 10
332.819361
 20
780.180304
 30
0.0
 10
325.422054
 20
778.337040
 30
0.0
 10
318.024750
 20
776.493776
 30
0.0
 10
310.627443
 20
774.650512
 30
0.0
 10
303.230139
 20
772.807248
 30
0.0
 10
300.590701
 20
771.673464
 30
0.0
 10
299.111193
 20
769.993292
 30
0.0
 10
298.756299
 20
767.934167
 30
0.0
 10
299.490694
 20
765.663527
 30
0.0
 10
301.609568
 20
761.787374
 30
0.0
 10
303.728445
 20
757.911221
 30
0.0
 10
305.847318
 20
754.035068
 30
0.0
 10
307.966195
 20
750.158915
 30
0.0
 10
309.306505
 20
748.655550
 30
0.0
 10
311.046326
 20
748.215113
 30
0.0
 10
313.087137
 20
748.856828
 30
0.0
 10
315.330417
 20
750.599916
 30
0.0
 10
320.857999
 20
756.098832
 30
0.0
 10
326.385583
 20
761.597749
 30
0.0
 10
331.913165
 20
767.096665
 30
0.0
 10
337.440750
 20
772.595582
 30
0.0
 10
339.789838
 20
775.741920
 30
0.0
 10
340.223086
 20
778.314372
 30
0.0
 10
338.892549
 20
780.036061
 30
0.0
 10
335.950278
 20
780.630110
 30
0.0
  0
LWPOLYLINE
  5
127
100
AcDbEntity
  8
inserts
 62
7
100
AcDbPolyline
 90
25
 70
0
 10
259.406319
 20
786.054082
 30
0.0
 10
256.293400
 20
784.756627
 30
0.0
 10
253.869162
 20
781.771794
 30
0.0
 10
252.191647
 20
777.903036
 30
0.0
 10
251.318889
 20
773.953804
 30
0.0
 10
251.132752
 20
770.803595
 30
0.0
 10
251.252073
 20
767.199644
 30
0.0
 10
251.689227
 20
763.625787
 30
0.0
 10
252.456597
 20
760.565860
 30
0.0
 10
254.470515
 20
756.629018
 30
0.0
 10
257.207583
 20
753.883238
 30
0.0
 10
260.450914
 20
752.556130
 30
0.0
 10
263.983611
 20
752.875304
 30
0.0
 10
267.807448
 20
755.498392
 30
0.0
 10
269.967795
 20
759.654480
 30
0.0
 10
270.738984
 20
764.585966
 30
0.0
 10
270.395347
 20
769.535249
 30
0.0
 10
268.868246
 20
775.223389
 30
0.0
 10
266.403297
 20
780.509187
 30
0.0
 10
263.299564
 20
784.437723
 30
0.0
 10
259.856111
 20
786.054082
 30
0.0
 10
259.742782
 20
786.057777
 30
0.0
 10
259.629916
 20
786.059357
 30
0.0
 10
259.517698
 20
786.058313
 30
0.0
 10
259.406319
 20
786.054082
 30
0.0
  0
LWPOLYLINE
  5
128
100
AcDbEntity
  8
inserts
 62
7
100
AcDbPolyline
 90
29
 70
0
 10
157.541736
 20
825.653360
 30
0.0
 10
157.131993
 20
825.506136
 30
0.0
 10
156.781878
 20
825.095327
 30
0.0
 10
156.476553
 20
824.414531
 30
0.0
 10
156.201181
 20
823.457332
 30
0.0
 10
154.093333
 20
814.745922
 30
0.0
 10
151.985486
 20
806.034512
 30
0.0
 10
149.877639
 20
797.323103
 30
0.0
 10
147.769792
 20
788.611693
 30
0.0
 10
147.582507
 20
786.714834
 30
0.0
 10
148.119874
 20
785.503795
 30
0.0
 10
149.333276
 20
785.017676
 30
0.0
 10
151.174097
 20
785.295582
 30
0.0
 10
158.921979
 20
787.734165
 30
0.0
 10
166.669861
 20
790.172749
 30
0.0
 10
174.417743
 20
792.611332
 30
0.0
 10
182.165625
 20
795.049916
 30
0.0
 10
183.925405
 20
795.972811
 30
0.0
 10
184.629253
 20
797.236602
 30
0.0
 10
184.323976
 20
798.758625
 30
0.0
 10
183.056389
 20
800.456221
 30
0.0
 10
177.127518
 20
806.468881
 30
0.0
 10
171.198646
 20
812.481540
 30
0.0
 10
165.269774
 20
818.494200
 30
0.0
 10
159.340903
 20
824.506860
 30
0.0
 10
158.803249
 20
825.014485
 30
0.0
 10
158.328531
 20
825.376655
 30
0.0
 10
157.910207
 20
825.590551
 30
0.0
 10
157.541736
 20
825.653360
 30
0.0
  0
LWPOLYLINE
  5
129
100
AcDbEntity
  8
inserts
 62
7
100
AcDbPolyline
 90
21
 70
0
 10
479.680755
 20
826.147248
 30
0.0
 10
479.529625
 20
826.140616
 30
0.0
 10
479.379907
 20
826.130400
 30
0.0
 10
479.230667
 20
826.117587
 30
0.0
 10
479.081033
 20
826.103194
 30
0.0
 10
474.023385
 20
823.177023
 30
0.0
 10
469.266247
 20
816.773714
 30
0.0
 10
465.776259
 20
808.991623
 30
0.0
 10
464.520145
 20
801.929110
 30
0.0
 10
466.032573
 20
797.257313
 30
0.0
 10
469.477575
 20
793.209572
 30
0.0
 10
473.651924
 20
790.463455
 30
0.0
 10
477.352422
 20
789.696527
 30
0.0
 10
483.614087
 20
792.811278
 30
0.0
 10
488.843890
 20
799.125047
 30
0.0
 10
492.380501
 20
806.973133
 30
0.0
 10
493.562589
 20
814.690832
 30
0.0
 10
492.209729
 20
818.749803
 30
0.0
 10
488.919243
 20
822.482424
 30
0.0
 10
484.479973
 20
825.183358
 30
0.0
 10
479.680755
 20
826.147248
 30
0.0
  0
LWPOLYLINE
  5
12a
100
AcDbEntity
  8
inserts
 62
7
100
AcDbPolyline
 90
45
 70
0
 10
75.714931
 20
831.774082
 30
0.0
 10
74.998148
 20
831.628698
 30
0.0
 10
74.383956
 20
831.152307
 30
0.0
 10
73.906086
 20
830.336366
 30
0.0
 10
73.598264
 20
829.172332
 30
0.0
 10
72.187153
 20
820.225007
 30
0.0
 10
70.776042
 20
811.277679
 30
0.0
 10
69.364931
 20
802.330354
 30
0.0
 10
67.953819
 20
793.383026
 30
0.0
 10
67.887246
 20
791.635462
 30
0.0
 10
68.344206
 20
790.665992
 30
0.0
 10
69.302709
 20
790.501623
 30
0.0
 10
70.740764
 20
791.169360
 30
0.0
 10
72.769236
 20
792.496679
 30
0.0
 10
74.797708
 20
793.823999
 30
0.0
 10
76.826181
 20
795.151318
 30
0.0
 10
78.854653
 20
796.478637
 30
0.0
 10
80.118037
 20
792.540762
 30
0.0
 10
81.381422
 20
788.602888
 30
0.0
 10
82.644810
 20
784.665013
 30
0.0
 10
83.908194
 20
780.727138
 30
0.0
 10
87.519756
 20
782.089735
 30
0.0
 10
91.131319
 20
783.452332
 30
0.0
 10
94.742881
 20
784.814929
 30
0.0
 10
98.354444
 20
786.177526
 30
0.0
 10
96.800018
 20
789.985325
 30
0.0
 10
95.245589
 20
793.793124
 30
0.0
 10
93.691162
 20
797.600922
 30
0.0
 10
92.136736
 20
801.408721
 30
0.0
 10
94.786978
 20
800.983186
 30
0.0
 10
97.437222
 20
800.557652
 30
0.0
 10
100.087464
 20
800.132117
 30
0.0
 10
102.737708
 20
799.706582
 30
0.0
 10
104.324590
 20
799.732267
 30
0.0
 10
105.164266
 20
800.337646
 30
0.0
 10
105.176515
 20
801.383754
 30
0.0
 10
104.281111
 20
802.731638
 30
0.0
 10
97.692986
 20
809.685772
 30
0.0
 10
91.104861
 20
816.639902
 30
0.0
 10
84.516736
 20
823.594036
 30
0.0
 10
77.928611
 20
830.548166
 30
0.0
 10
77.364559
 20
831.070274
 30
0.0
 10
76.800459
 20
831.451012
 30
0.0
 10
76.247015
 20
831.686806
 30
0.0
 10
75.714931
 20
831.774082
 30
0.0
  0
LWPOLYLINE
  5
12b
100
AcDbEntity
  8
inserts
 62
7
100
AcDbPolyline
 90
45
 70
0
 10
64.108542
 20
912.807138
 30
0.0
 10
63.522682
 20
912.658407
 30
0.0
 10
62.972397
 20
912.220804
 30
0.0
 10
62.469835
 20
911.489866
 30
0.0
 10
62.027153
 20
910.461137
 30
0.0
 10
58.913889
 20
901.485153
 30
0.0
 10
55.800625
 20
892.509165
 30
0.0
 10
52.687361
 20
883.533178
 30
0.0
 10
49.574097
 20
874.557193
 30
0.0
 10
49.201776
 20
872.408734
 30
0.0
 10
49.884121
 20
871.204083
 30
0.0
 10
51.355137
 20
871.038777
 30
0.0
 10
53.348819
 20
872.008360
 30
0.0
 10
55.405954
 20
873.498846
 30
0.0
 10
57.463089
 20
874.989332
 30
0.0
 10
59.520226
 20
876.479818
 30
0.0
 10
61.577361
 20
877.970304
 30
0.0
 10
61.976440
 20
873.785485
 30
0.0
 10
62.375519
 20
869.600665
 30
0.0
 10
62.774601
 20
865.415846
 30
0.0
 10
63.173681
 20
861.231027
 30
0.0
 10
67.102742
 20
861.947603
 30
0.0
 10
71.031806
 20
862.664179
 30
0.0
 10
74.960867
 20
863.380756
 30
0.0
 10
78.889931
 20
864.097332
 30
0.0
 10
77.990347
 20
868.096951
 30
0.0
 10
77.090764
 20
872.096568
 30
0.0
 10
76.191181
 20
876.096188
 30
0.0
 10
75.291597
 20
880.095804
 30
0.0
 10
77.575833
 20
878.991164
 30
0.0
 10
79.860069
 20
877.886526
 30
0.0
 10
82.144306
 20
876.781889
 30
0.0
 10
84.428542
 20
875.677248
 30
0.0
 10
86.156907
 20
875.162450
 30
0.0
 10
87.220831
 20
875.554964
 30
0.0
 10
87.486129
 20
876.674495
 30
0.0
 10
86.818611
 20
878.340749
 30
0.0
 10
81.681283
 20
886.531803
 30
0.0
 10
76.543958
 20
894.722860
 30
0.0
 10
71.406631
 20
902.913917
 30
0.0
 10
66.269306
 20
911.104971
 30
0.0
 10
65.732256
 20
911.848090
 30
0.0
 10
65.188005
 20
912.381885
 30
0.0
 10
64.644211
 20
912.702766
 30
0.0
 10
64.108542
 20
912.807138
 30
0.0
  0
LWPOLYLINE
  5
12c
100
AcDbEntity
  8
inserts
 62
7
100
AcDbPolyline
 90
45
 70
0
 10
75.856042
 20
994.422263
 30
0.0
 10
75.065755
 20
994.249421
 30
0.0
 10
74.232595
 20
993.776329
 30
0.0
 10
73.371109
 20
993.004432
 30
0.0
 10
72.495833
 20
991.935179
 30
0.0
 10
67.433472
 20
984.912697
 30
0.0
 10
62.371111
 20
977.890215
 30
0.0
 10
57.308750
 20
970.867731
 30
0.0
 10
52.246389
 20
963.845249
 30
0.0
 10
51.401760
 20
962.249852
 30
0.0
 10
51.393378
 20
961.040987
 30
0.0
 10
52.232633
 20
960.343489
 30
0.0
 10
53.930894
 20
960.282193
 30
0.0
 10
56.010079
 20
960.573235
 30
0.0
 10
58.089261
 20
960.864276
 30
0.0
 10
60.168446
 20
961.155318
 30
0.0
 10
62.247630
 20
961.446360
 30
0.0
 10
61.134176
 20
957.691481
 30
0.0
 10
60.020719
 20
953.936604
 30
0.0
 10
58.907265
 20
950.181725
 30
0.0
 10
57.793811
 20
946.426846
 30
0.0
 10
62.148412
 20
945.569156
 30
0.0
 10
66.503011
 20
944.711465
 30
0.0
 10
70.857612
 20
943.853772
 30
0.0
 10
75.212214
 20
942.996082
 30
0.0
 10
75.454747
 20
947.275717
 30
0.0
 10
75.697283
 20
951.555354
 30
0.0
 10
75.939817
 20
955.834989
 30
0.0
 10
76.182353
 20
960.114624
 30
0.0
 10
78.257126
 20
958.745406
 30
0.0
 10
80.331900
 20
957.376188
 30
0.0
 10
82.406676
 20
956.006967
 30
0.0
 10
84.481450
 20
954.637749
 30
0.0
 10
86.099839
 20
953.924466
 30
0.0
 10
87.251252
 20
954.170231
 30
0.0
 10
87.771825
 20
955.394996
 30
0.0
 10
87.497700
 20
957.618721
 30
0.0
 10
85.250946
 20
966.069953
 30
0.0
 10
83.004192
 20
974.521188
 30
0.0
 10
80.757440
 20
982.972420
 30
0.0
 10
78.510686
 20
991.423651
 30
0.0
 10
78.029898
 20
992.755424
 30
0.0
 10
77.413318
 20
993.698679
 30
0.0
 10
76.681762
 20
994.254075
 30
0.0
 10
75.856042
 20
994.422263
 30
0.0
  0
ENDSEC
  0
SECTION
  2
OBJECTS
  0
DICTIONARY
  5
C
330
0
100
AcDbDictionary
  3
ACAD_GROUP
350
D
  3
ACAD_MLINESTYLE
350
17
  0
DICTIONARY
  5
D
330
C
100
AcDbDictionary
  0
DICTIONARY
  5
1A
330
C
100
AcDbDictionary
  0
DICTIONARY
  5
17
330
C
100
AcDbDictionary
  3
STANDARD
350
18
  0
DICTIONARY
  5
19
330
C
100
AcDbDictionary
  0
ENDSEC
  0
EOF
