<?xml version="1.0" encoding="UTF-8" standalone="no"?>
<!-- Created with Inkscape (http://www.inkscape.org/) -->

<svg
   xmlns:dc="http://purl.org/dc/elements/1.1/"
   xmlns:cc="http://creativecommons.org/ns#"
   xmlns:rdf="http://www.w3.org/1999/02/22-rdf-syntax-ns#"
   xmlns:svg="http://www.w3.org/2000/svg"
   xmlns="http://www.w3.org/2000/svg"
   xmlns:xlink="http://www.w3.org/1999/xlink"
   xmlns:sodipodi="http://sodipodi.sourceforge.net/DTD/sodipodi-0.dtd"
   xmlns:inkscape="http://www.inkscape.org/namespaces/inkscape"
   width="2257.075"
   height="4267.0122"
   id="svg8124"
   version="1.1"
   inkscape:version="0.48+devel r11513 custom"
   sodipodi:docname="playfield_inserts.svg">
  <defs
     id="defs8126">
    <pattern
       id="Hatch"
       x="0"
       y="0"
       patternUnits="userSpaceOnUse"
       width="8"
       height="8">
      <path
         id="path1220"
         d="M8 4 l-4,4"
         stroke-width="0.25"
         stroke="#000000"
         linecap="square" />
      <path
         id="path1222"
         d="M6 2 l-4,4"
         stroke-width="0.25"
         stroke="#000000"
         linecap="square" />
      <path
         id="path1224"
         d="M4 0 l-4,4"
         stroke-width="0.25"
         stroke="#000000"
         linecap="square" />
    </pattern>
    <marker
       orient="auto"
       id="DistanceX"
       style="overflow:visible"
       refX="0"
       refY="0">
      <path
         id="path1217"
         d="M 3,-3 -3,3 M 0,-5 0,5"
         style="stroke:#000000;stroke-width:0.5"
         inkscape:connector-curvature="0" />
    </marker>
    <pattern
       id="Hatch-2"
       x="0"
       y="0"
       patternUnits="userSpaceOnUse"
       width="8"
       height="8">
      <path
         id="path1268"
         d="M8 4 l-4,4"
         stroke-width="0.25"
         stroke="#000000"
         linecap="square" />
      <path
         id="path1270"
         d="M6 2 l-4,4"
         stroke-width="0.25"
         stroke="#000000"
         linecap="square" />
      <path
         id="path1272"
         d="M4 0 l-4,4"
         stroke-width="0.25"
         stroke="#000000"
         linecap="square" />
    </pattern>
    <marker
       orient="auto"
       id="DistanceX-4"
       style="overflow:visible"
       refX="0"
       refY="0">
      <path
         id="path1265"
         d="M 3,-3 -3,3 M 0,-5 0,5"
         style="stroke:#000000;stroke-width:0.5"
         inkscape:connector-curvature="0" />
    </marker>
    <pattern
       id="Hatch-6"
       x="0"
       y="0"
       patternUnits="userSpaceOnUse"
       width="8"
       height="8">
      <path
         id="path1405"
         d="M8 4 l-4,4"
         stroke-width="0.25"
         stroke="#000000"
         linecap="square" />
      <path
         id="path1407"
         d="M6 2 l-4,4"
         stroke-width="0.25"
         stroke="#000000"
         linecap="square" />
      <path
         id="path1409"
         d="M4 0 l-4,4"
         stroke-width="0.25"
         stroke="#000000"
         linecap="square" />
    </pattern>
    <marker
       orient="auto"
       id="DistanceX-9"
       style="overflow:visible"
       refX="0"
       refY="0">
      <path
         id="path1402"
         d="M 3,-3 -3,3 M 0,-5 0,5"
         style="stroke:#000000;stroke-width:0.5"
         inkscape:connector-curvature="0" />
    </marker>
    <pattern
       id="Hatch-20"
       x="0"
       y="0"
       patternUnits="userSpaceOnUse"
       width="8"
       height="8">
      <path
         id="path2324"
         d="M8 4 l-4,4"
         stroke-width="0.25"
         stroke="#000000"
         linecap="square" />
      <path
         id="path2326"
         d="M6 2 l-4,4"
         stroke-width="0.25"
         stroke="#000000"
         linecap="square" />
      <path
         id="path2328"
         d="M4 0 l-4,4"
         stroke-width="0.25"
         stroke="#000000"
         linecap="square" />
    </pattern>
    <marker
       orient="auto"
       id="DistanceX-6"
       style="overflow:visible"
       refX="0.0"
       refY="0.0">
      <path
         id="path2321"
         d="M 3,-3 L -3,3 M 0,-5 L  0,5"
         style="stroke:#000000; stroke-width:0.5" />
    </marker>
    <pattern
       id="Hatch-5"
       x="0"
       y="0"
       patternUnits="userSpaceOnUse"
       width="8"
       height="8">
      <path
         id="path2372"
         d="M8 4 l-4,4"
         stroke-width="0.25"
         stroke="#000000"
         linecap="square" />
      <path
         id="path2374"
         d="M6 2 l-4,4"
         stroke-width="0.25"
         stroke="#000000"
         linecap="square" />
      <path
         id="path2376"
         d="M4 0 l-4,4"
         stroke-width="0.25"
         stroke="#000000"
         linecap="square" />
    </pattern>
    <marker
       orient="auto"
       id="DistanceX-5"
       style="overflow:visible"
       refX="0.0"
       refY="0.0">
      <path
         id="path2369"
         d="M 3,-3 L -3,3 M 0,-5 L  0,5"
         style="stroke:#000000; stroke-width:0.5" />
    </marker>
  </defs>
  <sodipodi:namedview
     id="base"
     pagecolor="#ffffff"
     bordercolor="#666666"
     borderopacity="1.0"
     inkscape:pageopacity="0.0"
     inkscape:pageshadow="2"
     inkscape:zoom="0.23398976"
     inkscape:cx="1057.8943"
     inkscape:cy="3663.599"
     inkscape:document-units="px"
     inkscape:current-layer="layer2"
     showgrid="false"
     width="0px"
     height="0px"
     fit-margin-top="0"
     fit-margin-left="0"
     fit-margin-right="0"
     fit-margin-bottom="0"
     inkscape:window-width="1024"
     inkscape:window-height="531"
     inkscape:window-x="0"
     inkscape:window-y="0"
     inkscape:window-maximized="1"
     units="cm" />
  <metadata
     id="metadata8129">
    <rdf:RDF>
      <cc:Work
         rdf:about="">
        <dc:format>image/svg+xml</dc:format>
        <dc:type
           rdf:resource="http://purl.org/dc/dcmitype/StillImage" />
        <cc:license
           rdf:resource="" />
        <dc:title />
      </cc:Work>
    </rdf:RDF>
  </metadata>
  <g
     inkscape:groupmode="layer"
     id="layer3"
     inkscape:label="bgimage"
     sodipodi:insensitive="true"
     style="display:none">
    <image
       style="fill:none;stroke:#00ff00;display:inline"
       width="2124.8613"
       height="3824.7502"
       id="image2922"
       x="63.705818"
       y="63.322906"
       xlink:href="/home/files/devel_novo/how-to-build-a-pinball/artwork/PartyLand/partyland.png"
       sodipodi:absref="/home/files/devel_novo/how-to-build-a-pinball/artwork/PartyLand/partyland.png" />
  </g>
  <g
     inkscape:label="inserts"
     inkscape:groupmode="layer"
     id="layer1"
     transform="translate(525.12642,1529.6239)"
     style="display:inline">
    <path
       id="path3111"
       style="fill:#ff0000;stroke:#000000;stroke-width:3.54330707;stroke-miterlimit:4;stroke-opacity:1;stroke-dasharray:none;display:inline"
       d="m 536.56108,1901.5323 c -21.49865,-0.6196 -43.11515,7.7952 -58.53669,22.7869 -15.42155,14.9918 -24.44385,36.3618 -24.43206,57.8694 0.23227,20.9628 9.02667,41.7051 23.93238,56.4465 14.90571,14.7415 35.74421,23.3055 56.70824,23.3055 20.96404,0 41.80254,-8.564 56.70825,-23.3055 14.90571,-14.7414 23.70011,-35.4837 23.93238,-56.4465 0.0114,-20.7315 -8.34439,-41.3488 -22.78605,-56.2226 -14.44167,-14.8739 -34.80365,-23.8339 -55.52645,-24.4337 z m 510.93752,-89.0312 c -23.6635,0.6259 -83.41052,36.867 -93.43752,77.9375 -4.8099,19.7012 22.86,43.2796 42.75,39.9063 46.45702,-7.879 98.64932,-57.8664 98.18752,-81.5 -0.4189,-21.7214 -23.5583,-34.5348 -45.3438,-36.2813 -0.6854,-0.055 -1.3929,-0.083 -2.1562,-0.063 z m -1020.50002,-3.375 c -0.36255,0.01 -0.71979,0 -1.0625,0.031 -21.78556,1.7466 -44.92482,14.591 -45.34375,36.3126 -0.46178,23.6334 51.73043,73.621 98.1875,81.5 19.89001,3.3732 47.55993,-20.2364 42.75,-39.9376 -10.18881,-41.7329 -71.69075,-78.4455 -94.53125,-77.9062 z m 1178.37502,-95.5938 c -23.6634,0.6259 -83.3791,36.8671 -93.4062,77.9376 -4.8099,19.7011 22.8287,43.2795 42.7187,39.9062 46.4571,-7.879 98.6806,-57.8665 98.2187,-81.5 -0.419,-21.7215 -23.5581,-34.5349 -45.3437,-36.2812 -0.6854,-0.055 -1.4242,-0.083 -2.1875,-0.063 z m -1340.31252,-4.5 c -0.36255,0.01 -0.71979,0.035 -1.0625,0.063 -21.78556,1.7463 -44.92482,14.5598 -45.34375,36.2812 -0.46179,23.6335 51.73043,73.621 98.1875,81.5 19.89,3.3733 47.55992,-20.2051 42.75,-39.9062 -10.18881,-41.733 -71.69075,-78.4768 -94.53125,-77.9376 z m 919.3437,-204.6562 56.1563,102.7812 -1.6875,84.6876 54.75,-35.5626 0,-72.8124 c 0,0 57.2769,-185.4835 55.9062,-185.1563 -7.6245,1.8214 -62.0937,14.6875 -62.0937,14.6875 l -24.8437,124.75 -48.5626,-105 -28.375,11.375 -0.0312,0 -169.0938,-33.4375 0,25.1875 c -11.1043,-10.815 -26.5295,-18.9178 -46.25,-20.3438 -24.8301,-1.7953 -97.1562,-2.5937 -97.1562,-2.5937 l -12.8125,152.3125 -60.03125,-142.4375 -72.625,-9.875 -9.75,60.7187 1.40625,-11.7187 c -7.97144,-10.4907 -18.29573,-20.0273 -30.34375,-25.375 -24.26193,-10.7688 -47.9149,-13.8594 -78.875,-11.0313 l -114.6875,10.4688 98.15625,209.0312 57.34375,6.0626 -38.59375,-73.3438 c 17.45579,3.4229 25.5013,4.6483 46.875,6.0625 17.8091,1.1785 30.35148,-0.2958 41.78125,-4.4375 l -8.6875,54.125 52.46875,16.4375 7.40625,-45.6563 73.65625,23.0313 c 8.18607,21.964 16.55432,43.8761 25.3125,65.625 l 69.5312,15.4375 -21.3124,-50.5938 11.0312,-98.1562 c 21.4685,-2.3731 29.0406,0.7555 33.9375,11.9375 0.9066,2.068 24.4718,85.1318 25.3125,88.0625 3.7724,-0.1225 56.375,-6.7812 56.375,-6.7812 l -31.25,-94.2813 c 24.0822,-19.5554 37.4189,-28.8473 42.3125,-72.7813 0.3008,-2.7013 0.2779,-5.5815 0.0313,-8.5312 l 29.4374,5.4375 -9.875,184.9687 54.0938,9.0313 11.9375,-183.7187 61.6875,11.4062 z m -736.06245,-159.75 c -26.63821,0 -48.21875,21.5805 -48.21875,48.2188 0,26.6382 21.58054,48.25 48.21875,48.25 26.63821,0 48.25,-21.6118 48.25,-48.25 0,-26.6383 -21.61179,-48.2188 -48.25,-48.2188 z m 1414.50007,-54.0312 c -26.7893,0 -48.5,35.8011 -48.5,79.9374 0,44.1362 21.7108,79.9063 48.5,79.9063 26.7892,0 48.5312,-35.7701 48.5312,-79.9063 0,-44.1363 -21.7421,-79.9374 -48.5312,-79.9374 z m -1847.09382,0 c -26.78919,0 -48.5,35.8011 -48.5,79.9374 0,44.1362 21.71081,79.9063 48.5,79.9063 26.78917,0 48.5,-35.7701 48.5,-79.9063 0,-44.1363 -21.71083,-79.9374 -48.5,-79.9374 z m 407.8125,-52.125 c -26.63821,0 -48.25,21.5804 -48.25,48.2187 0,26.6382 21.61179,48.2187 48.25,48.2187 26.63821,0 48.21875,-21.5805 48.21875,-48.2187 0,-26.6383 -21.58054,-48.2187 -48.21875,-48.2187 z m 603.9063,-18.8438 -230.0313,29.5312 c 6.88663,19.4649 13.81291,39.2487 20.90625,60.5313 4.58218,13.7485 9.30381,28.9053 13.96875,43.4375 l 206.25,-21.1875 19.875,-0.9063 c -0.8003,-3.447 -1.4966,-6.9834 -2.3437,-10.4062 -3.1727,-12.819 -4.7422,-19.4837 -8.9063,-34.9062 -4.164,-15.4226 -8.5086,-30.6564 -13.0937,-45.6876 -2.1037,-6.8954 -4.4289,-13.5953 -6.625,-20.4062 z m 156.7187,-20.125 c -3.1311,0.1371 -6.3517,1.3864 -9.0937,4.0625 l -84.3126,82.3125 c -11.1318,10.8638 -4.9784,19.372 1.6876,23.5938 l 50.5312,32 c 7.6616,4.8522 23.43,7.4848 26.9375,-7.5938 l 27.4063,-117.75 c 2.3076,-9.9201 -5.1545,-16.9755 -13.1563,-16.625 z m 162.25,-18.3438 -76.0313,128.125 82.5313,48.9688 76.03132,-128.125 z m -947.6875,-48.875 c -26.63821,0 -48.21875,21.6117 -48.21875,48.25 0,26.6382 21.58054,48.2188 48.21875,48.2188 26.63821,0 48.25,-21.5806 48.25,-48.2188 0,-26.6383 -21.61179,-48.25 -48.25,-48.25 z m 859.5,-65.5312 c -3.1311,0.1371 -6.3204,1.4177 -9.0625,4.0938 l -84.3437,82.2812 c -11.1318,10.8638 -4.9786,19.372 1.6874,23.5938 l 50.5313,32 c 7.6616,4.8523 23.4613,7.516 26.9687,-7.5626 l 27.375,-117.7812 c 2.3077,-9.9201 -5.1544,-16.9755 -13.1562,-16.625 z m -300.5938,-18.3125 -230.7812,19.6563 c 6.18906,13.7898 12.39944,27.9607 18.84375,43.375 7.57183,18.1114 15.34219,37.3703 23.25,57.8437 0.44526,1.1529 0.89743,2.4958 1.34375,3.6563 l 231.0937,-27.9688 c -5.0172,-12.797 -10.1992,-25.5 -15.625,-37.9375 -5.9956,-13.7429 -12.2621,-27.2736 -18.7812,-40.5625 -3.0047,-6.1252 -6.2239,-12.0365 -9.3438,-18.0625 z m -583.68745,-22.3125 c -26.63821,0 -48.25,21.5804 -48.25,48.2188 0,26.6381 21.61179,48.25 48.25,48.25 26.63821,0 48.21875,-21.6119 48.21875,-48.25 0,-26.6384 -21.58054,-48.2188 -48.21875,-48.2188 z m 1078.62507,-29.9375 -76.03132,128.0937 82.53132,48.9688 76,-128.0938 z M 932.34238,934.0011 c -3.1312,0.1371 -6.3517,1.4177 -9.0938,4.0938 l -84.3438,82.3124 c -11.1317,10.8639 -4.9785,19.372 1.6876,23.5938 l 50.5624,32 c 7.6616,4.8523 23.43,7.4848 26.9376,-7.5938 l 27.4062,-117.7812 c 2.3076,-9.9201 -5.1544,-16.9755 -13.1562,-16.625 z m -406.7813,-7.375 c -0.6371,0 -1.3016,0.004 -1.9375,0.0312 -5.087,0.218 -10.1154,1.2967 -14.75,2.9063 -10.7036,3.7172 -22.1482,10.26 -27.7812,20.9063 -4.738,8.9549 -5.0963,20.4912 -1.3438,29.8124 3.7094,9.2137 12.0216,16.4738 21,20.0938 9.8241,3.961 21.6087,3.9724 31.4688,0.1562 11.0737,-4.2859 21.1487,-13.1381 26.125,-24.0624 4.0806,-8.9579 4.7362,-20.1982 0.75,-29.4063 -3.7407,-8.6413 -11.8821,-15.1321 -20.4376,-18.25 -4.1858,-1.5255 -8.6343,-2.1877 -13.0937,-2.1875 z m -576.40625,-6.6562 c -26.63821,0 -48.21875,21.5805 -48.21875,48.2187 0,26.6382 21.58054,48.2187 48.21875,48.2187 26.63821,0 48.25,-21.5805 48.25,-48.2187 0,-26.6382 -21.61179,-48.2187 -48.25,-48.2187 z m 1209.56257,-108.7813 -76,128.125 82.5312,48.9687 76,-128.125 z m -170.84382,-46 c -31.0252,-0.1238 -65.8176,29.5721 -63.5,80.4375 1.1649,25.5673 12.2501,50.2858 54.5625,71.9375 l -1.875,17.875 24.93752,-1.4063 -4.25002,-16.9374 c 25.64232,-10.6144 50.38842,-25.447 51.75002,-69.125 1.5293,-49.0569 -27.3875,-82.6436 -61.62502,-82.7813 z m -432.25,-27.6563 c -0.6774,0.0145 -1.3695,0.0603 -2.0625,0.1563 -9.0708,1.2568 -14.7993,5.3328 -17.25,14.1563 -1.6679,6.005 -1.6092,17.624 0.9375,23.3124 2.9648,6.6225 9.0114,13.3601 16.1562,14.625 7.3496,1.3014 15.3413,-5.9075 19.9063,-11.8124 5.3584,-6.9312 7.3203,-13.8228 4.3437,-22.0626 -3.5655,-9.87 -11.8696,-18.5917 -22.0312,-18.375 z m -58.6875,-5.2187 c -5.1022,0.0322 -10.0599,1.5462 -14.4063,4.625 -8.44568,5.9826 -14.55335,13.9235 -15.24995,24.25 -0.46188,6.8469 3.12202,14.5509 8.09375,19.2813 6.5676,6.2486 16.5047,12.5428 25.1875,9.9374 14.9242,-4.4779 22.7932,-18.3417 22.0625,-33.9062 -0.4555,-9.7032 -7.2523,-19.6186 -16.4688,-22.6875 -3.0321,-1.0096 -6.1574,-1.5193 -9.2187,-1.5 z m 335.375,-92.125 c -40.1964,0.9888 -61.6021,28.876 -59.375,82.3437 1.362,33.1965 24.7219,76.5011 66.3437,90.3126 l -5.4687,16.4374 26.4375,-1.9687 -7,-16.4687 c 40.2317,-15.2556 52.4975,-49.1026 51.4062,-86.8126 -1.6189,-55.9499 -38.3064,-84.6688 -72.3437,-83.8437 z m -298.2187,-4.4063 c -18.6647,0 -33.8126,15.1167 -33.8126,33.7813 0,18.6646 15.1479,33.8125 33.8126,33.8125 18.6645,0 33.7812,-15.1479 33.7812,-33.8125 0,-18.6646 -15.1167,-33.7813 -33.7812,-33.7813 z m -625.8438,-27.25 c -7.67469,0.1551 -15.29461,2.863 -21.0625,8.0626 -16.93129,15.2629 -18.17246,47.6705 9.65625,52.0312 -20.2526,21.2477 0.32056,46.9608 25.28125,50.2812 l -6.53125,6.625 192,100.3126 c 12.24291,6.36 16.5761,-3.458 9.03125,-14.0313 l -127.78125,-179.0625 -8.34375,12.2188 c 1.71962,-24.3839 -34.04492,-30.7948 -41.84375,-15.5938 -4.69359,-14.2604 -17.6151,-21.1022 -30.40625,-20.8438 z m -197.8125,-68.0312 c -2.68575,0.2197 -5.06717,2.3548 -3.5625,6.4688 -3.1234,-3.7799 -6.03208,-0.5867 -5.9375,2.8124 -3.6321,-6.2122 -10.41844,-5.3858 -13.0625,-0.4062 -1.81529,-5.985 -14.12179,-9.2248 -15.21875,1.6875 -3.33428,-7.4901 -10.94052,-1.369 -11.5625,5.3437 -4.56925,-6.5173 -15.53656,-7.048 -11.5,4.3126 -5.8915,-3.9582 -9.24013,-2.0956 -9.65625,0.875 -3.35913,-2.731 -9.11668,-1.2954 -9.6875,7.3124 -8.99419,-5.6209 -9.15933,14.6523 0.75,15.25 -5.84915,3.5702 -3.20624,9.3756 2.90625,10 -1.79419,2.9571 -1.23342,8.4969 1.71875,11.2188 -7.19725,-3.8715 -7.34345,5.5486 -3.875,7.8125 -8.90598,0.8789 -3.3197,13.6391 5.59375,13.3125 -2.83832,5.136 4.09232,8.7333 9.21875,7.625 -3.86348,3.0379 -6.72458,5.2034 -9.84375,7.2188 34.87231,32.0023 70.44634,62.5662 109.28125,88.625 24.22056,-13.7853 46.62704,-32.354 60.9375,-58.0313 -24.84695,-40.4526 -59.20366,-88.0777 -90,-128.6875 -0.86679,0.788 -0.97044,0.9512 -1.125,2.2188 0.31131,-3.5051 -2.68925,-5.1886 -5.375,-4.9688 z m 783.0937,-24.8125 c -18.66457,0 -33.7812,15.1479 -33.7812,33.8125 0,18.6646 15.11663,33.7812 33.7812,33.7812 18.6646,0 33.7813,-15.1166 33.7813,-33.7812 0,-18.6646 -15.1167,-33.8125 -33.7813,-33.8125 z m 587.87502,-10.1875 c -23.1645,-0.0887 -49.8254,13.0051 -68,37.4062 -24.91772,33.4548 -34.07112,89.5997 12.9688,126.7188 l -12.4688,12 26.9376,11.9688 0,-19.9688 c 37.5923,3.5118 66.5411,-16.6656 88.8124,-57.375 14.4577,-26.427 8.638,-81.9826 -19.9374,-102.2812 -7.9706,-5.6619 -17.7832,-8.4285 -28.3126,-8.4688 z m -1348.49997,-59.3438 -36.46875,36.4376 19,20.4687 6.6875,-1.4687 c -3.19162,11.4628 -2.12737,26.8939 8.1875,37.9374 10.31484,11.0436 24.02871,8.2369 35.90625,25 l 42.71875,60.25 c 12.59962,18.1103 26.32377,18.0842 40.90625,4.4688 l 24.25,-24.1875 c 15.13624,-13.7173 6.55794,-26.8858 0,-38.6875 -18.49292,-22.3513 -43.50448,-29.6429 -61.96875,-49.1562 -8.26864,-8.7386 -9.30397,-21.2614 -20.0625,-34.9688 -10.47246,-13.343 -23.90301,-12.3476 -39.4375,-10.4375 l 0.75,-5.1875 z m 722.0625,-50.3437 c -18.66462,0 -33.8125,15.1479 -33.8125,33.8125 0,18.6646 15.14788,33.7812 33.8125,33.7812 18.66459,0 33.78125,-15.1166 33.78125,-33.7812 0,-18.6646 -15.11666,-33.8125 -33.78125,-33.8125 z m -270.25,-93.375 c -2.10001,0.083 -3.52767,2.5961 -4.78125,7.7813 l -29.84375,123.4687 c -2.67314,10.5201 1.96017,14.9293 12.0625,11.75 l 109.78125,-34.5625 c 10.88198,-3.4247 11.3443,-10.8515 3.15625,-19.1562 l -84,-85.2188 c -2.69906,-2.7375 -4.74166,-4.1271 -6.375,-4.0625 z m 493.37505,-194.75 c -35.9721,0.1708 -89.0231,31.5378 -92.7188,64.9063 -1.7261,15.5847 24.0418,47.1741 48.1562,47.0624 30.4259,-0.1411 88.2414,-33.6467 89.8438,-58.4687 1.5533,-24.4081 -24.4222,-53.5991 -45.2812,-53.5 z m -572.5313,-58.375 c -2.10001,0.083 -3.52767,2.5648 -4.78125,7.75 l -29.84375,123.5 c -2.67314,10.5201 1.96017,14.9293 12.0625,11.75 l 109.78125,-34.5625 c 10.88198,-3.4247 11.3443,-10.8516 3.15625,-19.1562 l -84,-85.2188 c -2.69906,-2.7375 -4.74166,-4.1271 -6.375,-4.0625 z m 90.46875,-33.5313 c -6.2163,-0.0519 -12.20169,1.9174 -17.25,6.9376 -10.5869,10.5278 -9.0151,33.928 -1.0625,52.8124 12.2526,29.0958 25.1532,42.8785 44.9375,57.7813 21.2121,-2.8485 40.2523,-15.9952 46.75,-35.6875 -10.416,-22.9268 -18.58565,-47.1563 -39.96875,-66.3438 -8.80917,-7.9046 -21.53876,-15.4007 -33.40625,-15.5 z m 798.40625,-1.4374 c -33.5471,0.1593 -83.0222,29.4123 -86.4687,60.5312 -1.6098,14.534 22.4174,44.0104 44.9062,43.9062 28.3747,-0.1316 82.28682,-31.3826 83.78122,-54.5312 1.4486,-22.7626 -22.7659,-49.9986 -42.21872,-49.9062 z m -329.1875,-42.9688 c -3.2349,0.0543 -6.9493,0.5615 -11.0938,1.5938 l -104.8437,26.125 c -15.2654,3.8021 -19.2371,14.349 -13.25,25.3124 l 30.0313,54.9376 c 5.2333,9.5831 15.1724,9.3044 26.0937,-1.5626 l 78.3437,-77.9374 c 15.8631,-15.7842 12.1871,-28.7619 -5.2812,-28.4688 z M 394.02983,-47.8427 c -16.24212,0.8785 -26.52539,25.2924 -28.65625,42.875 -1.5815,13.0491 -0.39365,34.9572 4.03125,47.4376 7.4649,21.0543 23.81185,33.0052 40.84375,27.25 22.4269,-7.5782 26.54365,-36.7999 22.71875,-59.0313 -4.5284,-26.3197 -20.74395,-57.8606 -37.34375,-58.5313 -0.53622,-0.0216 -1.06981,-0.0283 -1.59375,0 z M 33.09233,-188.1551 c -2.10001,0.083 -3.49642,2.596 -4.75,7.7812 l -29.875,123.4688 c -2.67314,10.52 1.96017,14.9293 12.0625,11.75 l 109.8125,-34.5626 c 10.88198,-3.4247 11.3443,-10.8515 3.15625,-19.1562 l -84.03125,-85.2188 c -2.69906,-2.7374 -4.74166,-4.127 -6.375,-4.0624 z m 1141.43747,-1.75 c -0.7187,0.0212 -1.4156,0.086 -2.125,0.1562 -23.0819,2.3062 -52.4584,57.2943 -51.5937,85.6562 0.6854,22.4786 31.0003,45.4628 45.4687,43.3438 30.9787,-4.5369 58.4562,-55.0305 57.4376,-88.5625 -0.5722,-18.8364 -26.9061,-41.2537 -49.1876,-40.5937 z m -1431.37497,-19.9376 c -3.57561,-0.0816 -6.50051,2.8837 -7.5,9.2188 l -20,126.8125 c -1.58584,10.0517 1.98288,13.0065 9.875,7.8437 l 28.75,-18.8124 17.90625,55.8124 51.1875,-19.3124 -22.03125,-53.9688 37.5625,6.0312 c 9.13579,1.4668 11.9694,-3.8567 5.46875,-10.7187 l -93.375,-98.5625 c -2.64784,-2.795 -5.39728,-4.2879 -7.84375,-4.3438 z m -41.125,-287.125 c -2.83273,0.0273 -5.44417,2.742 -7.375,8.3126 l -44.125,127.2187 c -4.66923,12.2292 3.14027,16.4433 13.375,9.0313 l 29.15625,-21.125 5.65625,59.3124 55.6875,-10.1562 -12.75,-56.6875 32.375,15.6563 c 9.52374,4.8593 14.03718,-0.558 8.46875,-9.4376 l -72.8125,-116.0937 c -2.50816,-3.9996 -5.15678,-6.0553 -7.65625,-6.0313 z m 41.625,-289.18745 c -3.60948,0.10504 -7.76142,3.06077 -11.90625,8.8125 l -71.75,99.53125 c -5.94786,8.25377 -4.1016,14.03485 5.96875,12.625 l 29.46875,-4.125 -15.78125,53.21875 61.71875,12.15625 3.4375,-60.65625 29.40625,19.40625 c 8.49098,5.60387 14.11788,2.33445 10.6875,-10.5625 l -31.84375,-119.78125 c -1.91791,-7.21062 -5.3155,-10.74404 -9.40625,-10.625 z"
       inkscape:connector-curvature="0"
       sodipodi:nodetypes="cscssscsccsscccccccsscccsscccccccsscccccccccccccccsccccccscccccscccccccccccccccccccccssssssssssssssssssssccsccccscccccccccccccccsssssccccccccccsccccccsssssccccccscccccccccscssscccsssssccccccsccccscccsccsscsssccsssccccccscsssssssccccccccscccccccccccccccccccccsssssssccccsssccccscccccsscccsssssccccccccssscscccccccccssccscssscssccccccscssssccccccccccccssscccccccccscscccccccccccccsccccccccccs" />
  </g>
  <g
     inkscape:groupmode="layer"
     id="layer2"
     inkscape:label="puke">
    <path
       sodipodi:type="arc"
       style="color:#000000;color-interpolation:sRGB;color-interpolation-filters:linearRGB;fill:#800080;fill-opacity:1;fill-rule:nonzero;stroke:none;stroke-width:0.5;marker:none;visibility:visible;display:inline;overflow:visible;enable-background:accumulate;clip-rule:nonzero"
       id="path322"
       sodipodi:cx="1003.249"
       sodipodi:cy="362.99521"
       sodipodi:rx="41.668491"
       sodipodi:ry="41.668491"
       d="M 1003.249,321.32672 A 41.668491,41.668491 0 1 1 1003.249,321.32672"
       sodipodi:start="4.712389"
       sodipodi:end="10.995574"
       sodipodi:open="true"
       transform="matrix(1.4102564,0,0,1.4102564,-409.45248,-147.85269)" />
    <path
       transform="matrix(1.4102564,0,0,1.4102564,174.97481,-147.85269)"
       sodipodi:open="true"
       sodipodi:end="10.995574"
       sodipodi:start="4.712389"
       d="M 1003.249,321.32672 A 41.668491,41.668491 0 1 1 1003.249,321.32672"
       sodipodi:ry="41.668491"
       sodipodi:rx="41.668491"
       sodipodi:cy="362.99521"
       sodipodi:cx="1003.249"
       id="path324"
       style="color:#000000;color-interpolation:sRGB;color-interpolation-filters:linearRGB;fill:#800080;fill-opacity:1;fill-rule:nonzero;stroke:none;stroke-width:0.5;marker:none;visibility:visible;display:inline;overflow:visible;enable-background:accumulate;clip-rule:nonzero"
       sodipodi:type="arc" />
    <path
       sodipodi:type="arc"
       style="color:#000000;color-interpolation:sRGB;color-interpolation-filters:linearRGB;fill:#800080;fill-opacity:1;fill-rule:nonzero;stroke:none;stroke-width:0.5;marker:none;visibility:visible;display:inline;overflow:visible;enable-background:accumulate;clip-rule:nonzero"
       id="path326"
       sodipodi:cx="1003.249"
       sodipodi:cy="362.99521"
       sodipodi:rx="41.668491"
       sodipodi:ry="41.668491"
       d="M 1003.249,321.32672 A 41.668491,41.668491 0 1 1 1003.249,321.32672"
       sodipodi:start="4.712389"
       sodipodi:end="10.995574"
       sodipodi:open="true"
       transform="matrix(1.4102564,0,0,1.4102564,-28.025527,-127.55266)" />
    <path
       transform="matrix(1.4102564,0,0,1.4102564,-211.79425,-127.55266)"
       sodipodi:open="true"
       sodipodi:end="10.995574"
       sodipodi:start="4.712389"
       d="M 1003.249,321.32672 A 41.668491,41.668491 0 1 1 1003.249,321.32672"
       sodipodi:ry="41.668491"
       sodipodi:rx="41.668491"
       sodipodi:cy="362.99521"
       sodipodi:cx="1003.249"
       id="path328"
       style="color:#000000;color-interpolation:sRGB;color-interpolation-filters:linearRGB;fill:#800080;fill-opacity:1;fill-rule:nonzero;stroke:none;stroke-width:0.5;marker:none;visibility:visible;display:inline;overflow:visible;enable-background:accumulate;clip-rule:nonzero"
       sodipodi:type="arc" />
  </g>
</svg>
